<?xml version="1.0" standalone="no"?>
<!DOCTYPE svg PUBLIC "-//W3C//DTD SVG 1.1//EN" "http://www.w3.org/Graphics/SVG/1.1/DTD/svg11.dtd" >
<svg>
<metadata>
Created by FontForge 20090914 at Wed Jan  7 22:06:00 2015
 By www-data
(URW)++,Copyright 1999 by (URW)++ Design &#38; Development
</metadata>
<defs>
<font id="NimbusSansBeckerTBla" horiz-adv-x="1024" vert-adv-y="2048" >
  <font-face 
    font-family="Nimbus Sans Becker TBla"
    font-weight="400"
    font-stretch="normal"
    units-per-em="2048"
    panose-1="0 0 0 0 0 0 0 0 0 0"
    ascent="1652"
    descent="-396"
    x-height="990"
    cap-height="1365"
    bbox="-259 -512 2674 1852"
    underline-thickness="241"
    underline-position="-94"
    unicode-range="U+0020-U+F002"
  />
<missing-glyph horiz-adv-x="614" vert-adv-y="1428" 
d="M61 0v1365h492v-1365h-492zM492 61v1243h-370v-1243h370z" />
    <glyph glyph-name=".notdef" horiz-adv-x="614" vert-adv-y="1428" 
d="M61 0v1365h492v-1365h-492zM492 61v1243h-370v-1243h370z" />
    <glyph glyph-name="space" unicode=" " horiz-adv-x="614" vert-adv-y="1428" 
 />
    <glyph glyph-name="exclam" unicode="!" horiz-adv-x="644" vert-adv-y="1428" 
d="M419 505h-195l-100 539v321h396v-321zM124 396h396v-396h-396v396z" />
    <glyph glyph-name="quotedbl" unicode="&#x22;" horiz-adv-x="1030" vert-adv-y="1428" 
d="M402 817h-295l-79 548h455zM923 817h-296l-78 548h454z" />
    <glyph glyph-name="numbersign" unicode="#" horiz-adv-x="1368" vert-adv-y="1428" 
d="M913 412l-45 -321h-187l46 321h-182l-45 -321h-187l46 321h-196l26 181h195l24 170h-196l26 181h195l42 294h186l-42 -294h182l42 294h186l-42 -294h217l-26 -181h-216l-24 -170h217l-26 -181h-216zM776 763h-182l-24 -170h182z" />
    <glyph glyph-name="dollar" unicode="$" horiz-adv-x="1338" vert-adv-y="1428" 
d="M764 1082v-223.998c86 -20.667 152.667 -41.334 200 -62.001c188.667 -82 283 -210.333 283 -385c0 -118 -46 -214 -138 -288c-86.667 -69.333 -201.667 -112.333 -345 -129v-178h-157v178c-106 3.33301 -201 24.666 -285 63.999c-119.333 58 -191.666 151 -216.999 279
c-6.66699 37.333 -11.334 78.333 -14.001 123h390c4 -45.333 15 -79.333 33 -102c20.667 -25.333 51.667 -42 93 -50v239c-141.333 41.333 -238 77.333 -290 108c-130.667 76.667 -196 185.667 -196 327c0 206.667 119.667 331.667 359 375c30.667 6 73 11 127 15v157h157
v-157c309.333 -12 464 -147.667 464 -407v-20h-366c-4 74 -36.667 119.667 -98 137zM607 1086c-68.667 -13.333 -103 -44.667 -103 -94c0 -40.667 34.333 -71.667 103 -93v187zM764 304.001c70 10 104.999 45 104.999 105c0 28 -9.66699 48.333 -29 61
c-17.333 12.667 -42.666 23.667 -75.999 33v-199z" />
    <glyph glyph-name="percent" unicode="%" horiz-adv-x="1895" vert-adv-y="1428" 
d="M429 1334c104 0 191.999 -42.668 263.999 -128.001c67.333 -80 101 -183 101 -309c0 -125.333 -33.667 -228.333 -101 -309c-71.333 -85.333 -160.666 -128 -267.999 -128c-108 0 -197.667 42.667 -269 128c-67.333 80.667 -101 183.334 -101 308.001
c0 126 33.667 229.333 101 310c71.333 85.333 162.333 128 273 128zM422.999 1129c-41.333 0 -72.334 -23 -93.001 -69c-19.333 -42 -29 -96.333 -29 -163c0 -66 9.66699 -120.333 29 -163c20.667 -46 52 -69 94 -69c42.667 0 74.334 23 95.001 69
c19.333 42.667 29 96.667 29 162c0 68 -9.66699 122.667 -29 164c-21.333 46 -53.333 69 -96 69zM1358 1324l-605 -1324h-225l605 1324h225zM1476 863.999c104.667 0 192.666 -42.668 263.999 -128.001c67.333 -80 101 -183 101 -309s-33.667 -229 -101 -309
c-71.333 -86 -160.666 -129 -267.999 -129c-108 0 -197.667 43 -269 129c-67.333 80.667 -101 183 -101 307c0 126.667 33.667 230.334 101 311.001c71.333 85.333 162.333 128 273 128zM1470 658.998c-41.333 0 -72.334 -22.999 -93.001 -68.999
c-19.333 -42.667 -29 -97.334 -29 -164.001c0 -66 9.66699 -120.333 29 -163c20.667 -46 52.334 -69 95.001 -69s74 23 94 69c19.333 43.333 29 97.333 29 162c0 68 -9.66699 123 -29 165c-20.667 46 -52.667 69 -96 69z" />
    <glyph glyph-name="ampersand" unicode="&#x26;" horiz-adv-x="1404" vert-adv-y="1428" 
d="M1003 671l328.001 -0.000976562c-19.333 -110.667 -77 -222 -173 -334l289 -337h-456l-83 104c-56.667 -41.333 -103.334 -70.333 -140.001 -87c-68.667 -30 -145.334 -45 -230.001 -45c-142 0 -258.667 42.333 -350 127c-84.667 78 -127 174.333 -127 289
c0 116 41.333 215 124 297c40 39.333 95.333 75 166 107c-27.333 39.333 -48.333 72.333 -63 99c-26 48 -39 97.333 -39 148c0 72.667 22.667 138.334 68 197.001c42 54.667 100.333 96.334 175 125.001c56.667 21.333 116 32 178 32c118.667 0 216.334 -36 293.001 -108
c74 -68.667 111 -155.334 111 -260.001c0 -137.333 -73.333 -247 -220 -329l98 -117c22.667 22 39.667 52.667 51 92zM664.001 918.999c4 2 7.66797 3.66895 11.001 5.00195l5 3c58 28.667 87 70 87 124c0 29.333 -8.66699 52.666 -26 69.999
c-16.667 17.333 -38.334 26 -65.001 26c-28 0 -50.667 -9 -68 -27c-16.667 -16.667 -25 -37.334 -25 -62.001c0 -22.667 8 -45.667 24 -69c10 -14.667 22.333 -30 37 -46zM551.002 541.001c-85.333 -32.667 -127.999 -81.001 -127.999 -145.001
c0 -33.333 10.667 -60.666 32 -81.999c23.333 -23.333 54 -35 92 -35c53.333 0 104.666 25.667 153.999 77z" />
    <glyph glyph-name="quotesingle" unicode="'" horiz-adv-x="524" vert-adv-y="1428" 
d="M416 817h-308l-80 548h468z" />
    <glyph glyph-name="parenleft" unicode="(" horiz-adv-x="733" vert-adv-y="1428" 
d="M307 1365l327 0.00195312c-117.333 -274.667 -176 -553.334 -176 -836.001c0 -188.667 25.333 -383 76 -583c30 -116.667 66.667 -219.334 110 -308.001h-337c-140.667 288.667 -211 575.334 -211 860.001c0 192 30 383.667 90 575
c32.667 103.333 73 200.666 121 291.999z" />
    <glyph glyph-name="parenright" unicode=")" horiz-adv-x="733" vert-adv-y="1428" 
d="M427 -362h-327c117.333 276 176 554.667 176 836c0 188.667 -25.667 383 -77 583c-29.333 116.667 -66 219.334 -110 308.001h338c140.667 -289.333 211 -576.333 211 -861c0 -308.667 -70.333 -597.334 -211 -866.001z" />
    <glyph glyph-name="asterisk" unicode="*" horiz-adv-x="947" vert-adv-y="1428" 
d="M579 1365v-246l232 80l67 -205l-235 -75l148 -196l-175 -128l-143 200l-141 -201l-175 127l146 198l-235 72l66 205l234 -77l-4 246h215z" />
    <glyph glyph-name="plus" unicode="+" vert-adv-y="1428" 
d="M2 854h410v418h196v-418h414v-189h-414v-419h-196v419h-410v189z" />
    <glyph glyph-name="comma" unicode="," horiz-adv-x="617" vert-adv-y="1428" 
d="M111 396l396.001 0.000976562v-320c-0.666992 -110.667 -17.334 -192.334 -50.001 -245.001c-66.667 -112 -182 -171 -346 -177v170c52 4.66699 93.667 24.667 125 60c27.333 32 42.333 70.667 45 116h-170v396z" />
    <glyph glyph-name="hyphen" unicode="-" horiz-adv-x="604" vert-adv-y="1428" 
d="M604 669v-328h-604v328h604z" />
    <glyph glyph-name="period" unicode="." horiz-adv-x="617" vert-adv-y="1428" 
d="M111 396h396v-396h-396v396z" />
    <glyph glyph-name="slash" unicode="/" horiz-adv-x="831" vert-adv-y="1428" 
d="M801 1365l-439 -1365h-362l439 1365h362z" />
    <glyph glyph-name="zero" unicode="0" horiz-adv-x="1338" vert-adv-y="1428" 
d="M677 1379c160 0 295.667 -63.666 407 -190.999c117.333 -133.333 176 -304 176 -512c0 -206.667 -58.667 -377.334 -176 -512.001c-110.667 -127.333 -249 -191 -415 -191s-304.333 63.667 -415 191c-117.333 134.667 -176 304.667 -176 510
c0 210.667 58.667 382 176 514c112.667 127.333 253.667 191 423 191zM666 1072c-67.333 0 -120.333 -31 -159 -93c-44.667 -71.333 -67 -172.333 -67 -303c0 -130 22.333 -231 67 -303c38.667 -62 92.667 -93 162 -93c70 0 124 31 162 93c44.667 72 67 172 67 300
c0 134 -22.333 236 -67 306c-39.333 62 -94.333 93 -165 93z" />
    <glyph glyph-name="one" unicode="1" horiz-adv-x="1338" vert-adv-y="1428" 
d="M985 1352l-0.000976562 -1352h-396v780h-318v284c122.667 -1.33301 217.667 22.667 285 72c34.667 25.333 60.334 54.166 77.001 86.499s28 75.5 34 129.5h318z" />
    <glyph glyph-name="two" unicode="2" horiz-adv-x="1338" vert-adv-y="1428" 
d="M1225 341v-341h-1112c0.666992 86.667 11.667 160 33 220c33.333 90.667 103.666 179.667 210.999 267c48.667 38 140.667 104.667 276 200c66.667 46.667 112.334 86 137.001 118c24.667 30.667 37 64 37 100c0 41.333 -14.667 75.666 -44 102.999
c-27.333 24.667 -62 37 -104 37c-58 0 -103.333 -18.333 -136 -55c-32.667 -37.333 -49 -99.666 -49 -186.999v-39h-350c-0.666992 28 -1 51.667 -1 71c0 172 51 305.667 153 401c102.667 95.333 237 143 403 143c145.333 0 265.333 -38 360 -114
c104.667 -84.667 157 -195.334 157 -332.001c0 -118 -44 -221.667 -132 -311c-36 -36.667 -126.333 -103 -271 -199c-37.333 -25.333 -72 -52.666 -104 -81.999h536z" />
    <glyph glyph-name="three" unicode="3" horiz-adv-x="1338" vert-adv-y="1428" 
d="M575 584l-0.000976562 258.001c28.667 -1.33301 49.667 -2 63 -2c56.667 0 100 7 130 21c37.333 16.667 56 47.667 56 93c0 40.667 -16 72.667 -48 96c-27.333 19.333 -60.333 29 -99 29c-64.667 0 -110.667 -22.667 -138 -68c-11.333 -19.333 -18 -56.333 -20 -111h-355
c5.33301 142 43.333 251.667 114 329c92 100 227.667 150 407 150c144.667 0 262.667 -35.667 354 -107c93.333 -72.667 140 -167.667 140 -285c0 -99.333 -47.667 -181.333 -143 -246c52 -29.333 91 -60 117 -92c48 -59.333 72 -132.333 72 -219
c0 -131.333 -50.667 -241 -152 -329c-98 -85.333 -228.333 -128 -391 -128c-228 0 -387.667 76.333 -479 229c-49.333 83.333 -73.666 190.666 -72.999 321.999h357v-22c0 -58.667 14 -106.667 42 -144c32.667 -42.667 81 -64 145 -64c50.667 0 90.667 13.667 120 41
c28 26.667 42 61 42 103c0 47.333 -17.667 84 -53 110c-34 26 -77.667 39 -131 39c-8 0 -33.667 -1 -77 -3z" />
    <glyph glyph-name="four" unicode="4" horiz-adv-x="1338" vert-adv-y="1428" 
d="M667 290h-579v370l594 692h374v-738h182v-324h-182v-290h-389v290zM667 614v160v53v41v50v33l-91 -105l-40 -47l-157 -185h288z" />
    <glyph glyph-name="five" unicode="5" horiz-adv-x="1338" vert-adv-y="1428" 
d="M589 1024l-37.0029 -153.001c82.667 32.667 160.667 49 234 49c126.667 0 230 -39 310 -117c86.667 -84 130 -194.333 130 -331c0 -143.333 -46.333 -260.666 -139 -351.999c-99.333 -98 -237.666 -147 -414.999 -147c-122 0 -229.333 22.333 -322 67
c-96.667 46.667 -167.667 119 -213 217c-17.333 37.333 -29.666 81 -36.999 131l387 40c8.66699 -37.333 25.334 -68 50.001 -92c34 -32.667 77.333 -49 130 -49s95.334 17.667 128.001 53c32.667 36 49 82.333 49 139c0 54 -16.667 98 -50 132
c-33.333 35.333 -76.333 53 -129 53c-70.667 0 -122.334 -31.667 -155.001 -95h-353l132 783h855v-328h-555z" />
    <glyph glyph-name="six" unicode="6" horiz-adv-x="1338" vert-adv-y="1428" 
d="M1209 1022l-352.002 -15c-28.667 61.333 -79 92 -151 92c-73.333 0 -131 -29 -173 -87c-27.333 -38 -44 -91 -50 -159c90 68.667 185.667 103 287 103c87.333 0 169 -23 245 -69s133 -109 171 -189c31.333 -66 47 -139.667 47 -221c0 -140.667 -46.333 -257 -139 -349
c-103.333 -103.333 -238.666 -155 -405.999 -155c-126 0 -236 32.333 -330 97c-168.667 116 -253 313.333 -253 592c0 242 60.333 427.667 181 557c100 106.667 240 160 420 160c172.667 0 305.667 -49.333 399 -148c48.667 -52 83.334 -121.667 104.001 -209zM679.998 669
c-50.667 0 -93.667 -17.667 -129 -53c-38 -37.333 -57 -85.666 -57 -144.999s19 -108 57 -146c35.333 -34.667 79.333 -52 132 -52c52 0 95.667 17.333 131 52c38 37.333 57 85.666 57 144.999c0 61.333 -19 110 -57 146c-36 35.333 -80.667 53 -134 53z" />
    <glyph glyph-name="seven" unicode="7" horiz-adv-x="1338" vert-adv-y="1428" 
d="M1203 1352v-316.999c-55.333 -46.667 -109.666 -112.334 -162.999 -197.001c-158.667 -254 -239.334 -533.333 -242.001 -838h-427c12 114 27.333 209.333 46 286c42.667 182 115.334 352.333 218.001 511c51.333 79.333 105.666 146 162.999 200h-663v355h1068z" />
    <glyph glyph-name="eight" unicode="8" horiz-adv-x="1338" vert-adv-y="1428" 
d="M1042 716c48 -26 84.333 -52.3311 109 -78.998c60.667 -64.667 91 -145.334 91 -242.001c0 -90 -27.333 -169.333 -82 -238c-54.667 -68 -133 -117.667 -235 -149c-75.333 -23.333 -160.666 -35 -255.999 -35c-164 0 -298.333 35 -403 105
c-56 37.333 -99 85.666 -129 144.999c-26.667 52.667 -40 110 -40 172c0 96.667 30.333 177.334 91 242.001c24.667 26.667 61 53 109 79c-40 35.333 -69.333 68 -88 98c-33.333 54.667 -50 115.667 -50 183c0 121.333 50.667 216 152 284c98 65.333 217.333 98 358 98
c141.333 0 260.666 -32.667 357.999 -98c101.333 -68 152 -162.667 152 -284c0 -67.333 -16.667 -128.333 -50 -183c-18.667 -30.667 -47.667 -63.334 -87 -98.001zM667 1113c-54 0 -98.0029 -12.333 -132.003 -37c-36.667 -26 -55 -62 -55 -108
c0 -46.667 18.333 -83 55 -109c34.667 -24.667 79.334 -37 134.001 -37s99.334 12.333 134.001 37c36.667 26 55 62 55 108c0 46.667 -18.333 83 -55 109c-33.333 24.667 -78.666 37 -135.999 37zM666.997 604.002c-64 0 -116.333 -17.333 -157 -52
c-34 -28.667 -51 -66.334 -51 -113.001c0 -47.333 17 -85.333 51 -114c40 -34.667 93.333 -52 160 -52c66 0 119.333 17.333 160 52c33.333 28.667 50 66.334 50 113.001s-16.667 84.667 -50 114c-40 34.667 -94.333 52 -163 52z" />
    <glyph glyph-name="nine" unicode="9" horiz-adv-x="1338" vert-adv-y="1428" 
d="M133 332l369.999 12c27.333 -56 75 -84 143 -84c70 0 122.667 30 158 90c18.667 32 32.667 80.667 42 146c-43.333 -30 -76.666 -50 -99.999 -60c-56 -24.667 -118.667 -37 -188 -37c-89.333 0 -172 23.667 -248 71c-75.333 47.333 -131 111.666 -167 192.999
c-28 62 -42 130.667 -42 206c0 160.667 58.333 288.334 175 383.001c104 84.667 232 127 384 127c167.333 0 303 -55 407 -165c113.333 -120 170 -295.333 170 -526c0 -222 -52 -397 -156 -525c-102.667 -126.667 -249 -190 -439 -190c-172.667 0 -305 43.333 -397 130
c-56 52 -93.333 128.333 -112 229zM652.999 1079c-51.333 0 -95.333 -17.334 -132 -52.001c-38.667 -37.333 -58 -85.666 -58 -144.999c0 -58.667 19.333 -106.667 58 -144c36 -34.667 81 -52 135 -52c53.333 0 98 17.333 134 52c38.667 37.333 58 85.333 58 144
c0 60.667 -19.333 109 -58 145c-37.333 34.667 -83 52 -137 52z" />
    <glyph glyph-name="colon" unicode=":" horiz-adv-x="617" vert-adv-y="1428" 
d="M111 990h396v-396h-396v396zM111 396h396v-396h-396v396z" />
    <glyph glyph-name="semicolon" unicode=";" horiz-adv-x="617" vert-adv-y="1428" 
d="M111 396l396.001 0.000976562v-320c-0.666992 -110.667 -17.334 -192.334 -50.001 -245.001c-66.667 -112 -182 -171 -346 -177v170c52 4.66699 93.667 24.667 125 60c27.333 32 42.333 70.667 45 116h-170v396zM111.001 990.001h396v-396h-396v396z" />
    <glyph glyph-name="less" unicode="&#x3c;" vert-adv-y="1428" 
d="M955 1368v-415l-446 -260l444 -262l2 -412l-887 502v346z" />
    <glyph glyph-name="equal" unicode="=" vert-adv-y="1428" 
d="M1 1012h1021v-183h-1021v183zM1 691h1021v-184h-1021v184z" />
    <glyph glyph-name="greater" unicode="&#x3e;" vert-adv-y="1428" 
d="M68 19v415l446 261l-444 261l-2 412l887 -502v-346z" />
    <glyph glyph-name="question" unicode="?" horiz-adv-x="1157" vert-adv-y="1428" 
d="M737 505l-352 0.00292969c1.33301 96 10.333 163 27 201c16 36 36.667 65 62 87c20 17.333 50.333 35.666 91 54.999c57.333 27.333 94 49.333 110 66c16.667 18 25 41 25 69c0 28.667 -10.333 51.667 -31 69c-22 18 -48.667 27 -80 27c-57.333 0 -96.333 -23 -117 -69
c-10 -22 -15.333 -55 -16 -99h-401c8.66699 136.667 50.667 245.667 126 327c96.667 103.333 233.667 155 411 155c149.333 0 271 -37 365 -111c97.333 -76.667 146 -177.334 146 -302.001c0 -74.667 -20.667 -136.667 -62 -186c-22 -25.333 -47.667 -47 -77 -65
c-20 -12 -48.333 -28 -85 -48c-68.667 -38.667 -110 -70.334 -124 -95.001c-9.33301 -16.667 -15.333 -43.667 -18 -81zM362 396.003h396v-396h-396v396z" />
    <glyph glyph-name="at" unicode="@" horiz-adv-x="1365" vert-adv-y="1428" 
d="M1182 351l142 0.000976562c-36 -71.333 -85.333 -134.333 -148 -189c-136.667 -120.667 -289.667 -181 -459 -181c-138.667 0 -265.667 37.667 -381 113c-109.333 71.333 -191.666 166 -246.999 284c-42.667 91.333 -64 188.666 -64 291.999
c0 131.333 33 250.666 99 357.999c59.333 96.667 140.666 174 243.999 232c108 61.333 224 92 348 92c179.333 0 330.333 -59.667 453 -179c113.333 -110 170 -239.333 170 -388c0 -114.667 -35.333 -215 -106 -301c-52 -63.333 -117.667 -110.666 -197 -141.999
c-50.667 -20.667 -96.667 -31 -138 -31c-66 0 -115 25 -147 75c-37.333 -24 -66.333 -41 -87 -51c-41.333 -20 -82 -30 -122 -30c-87.333 0 -157.333 35.333 -210 106c-34 46.667 -51 104.334 -51 173.001c0 112.667 41.333 214 124 304s173 135 271 135
c81.333 0 147.666 -29 198.999 -87l20 54h201l-156 -485c-5.33301 -17.333 -8.66602 -27.333 -9.99902 -30c-4.66699 -14.667 -7 -25.667 -7 -33c0 -8 3.33301 -15.667 10 -23c8 -8.66699 18 -13 30 -13c26 0 59 15.333 99 46c52.667 40 93 93.667 121 161
c22 53.333 33 106.666 33 159.999c0 73.333 -19.667 144.666 -59 213.999c-48 84.667 -114.333 149.334 -199 194.001c-73.333 38 -154.333 57 -243 57c-106 0 -203 -26.667 -291 -80c-82 -50 -146.667 -117.333 -194 -202c-48 -86 -72 -180.667 -72 -284
c0 -151.333 50 -281.666 150 -390.999c110 -120.667 248.667 -181 416 -181c129.333 0 248.333 46.333 357 139c39.333 33.333 73 70.666 101 111.999zM753 597.001l44.001 128.998c14 40 21 73.333 21 100s-7.66699 48.334 -23 65.001c-15.333 16 -33 24 -53 24
c-36.667 0 -71.334 -17.667 -104.001 -53c-47.333 -51.333 -85.333 -127.333 -114 -228c-14.667 -51.333 -22 -92.666 -22 -123.999c0 -37.333 9.66699 -67 29 -89c12 -14 29 -21 51 -21c40.667 0 74.667 18.667 102 56c24.667 32.667 47.667 79.667 69 141z" />
    <glyph glyph-name="A" unicode="A" horiz-adv-x="1379" vert-adv-y="1428" 
d="M902 188h-431l-60 -188h-425l485 1365h431l491 -1365h-432zM809 487l-120 390l-122 -390h242z" />
    <glyph glyph-name="B" unicode="B" horiz-adv-x="1443" vert-adv-y="1428" 
d="M134 0l0.000976562 1365h707c120.667 0 209 -12.667 265 -38c74 -33.333 128.333 -87 163 -161c22.667 -48 34 -100.333 34 -157c0 -108 -52 -195.333 -156 -262c148 -66 222 -180 222 -342c0 -80.667 -19 -154.667 -57 -222
c-44.667 -79.333 -106.334 -132 -185.001 -158c-50 -16.667 -128.667 -25 -236 -25h-757zM544.001 851h253c82.667 0 124 33.333 124 100s-41.333 100 -124 100h-253v-200zM544.001 335h262c111.333 0 167 40 167 120s-55.667 120 -167 120h-262v-240z" />
    <glyph glyph-name="C" unicode="C" horiz-adv-x="1445" vert-adv-y="1428" 
d="M1390 867l-407 -7.00098c-9.33301 46 -26.333 83.667 -51 113c-45.333 54.667 -104 82 -176 82c-80.667 0 -144.334 -33 -191.001 -99c-50.667 -70.667 -76 -159.667 -76 -267c0 -100 23.333 -186 70 -258c51.333 -80.667 119 -121 203 -121
c78.667 0 138.667 32.667 180 98c19.333 31.333 33 73.333 41 126h417c-14 -130.667 -51.667 -238 -113 -322c-62 -84 -143 -146.667 -243 -188c-87.333 -36.667 -179.333 -55 -276 -55c-152.667 0 -286.667 41.333 -402 124c-102.667 72.667 -178.667 169.334 -228 290.001
c-39.333 95.333 -59 199 -59 311c0 200 62.667 365.333 188 496c132 137.333 297 206 495 206c218 0 387.667 -81.333 509 -244c58.667 -78.667 98.334 -173.667 119.001 -285z" />
    <glyph glyph-name="D" unicode="D" horiz-adv-x="1488" vert-adv-y="1428" 
d="M134 0l0.00195312 1365h563c177.333 0 310.666 -25 399.999 -75c119.333 -66.667 206 -169.334 260 -308.001c35.333 -92 53 -195.333 53 -310c0 -182 -47.333 -331.667 -142 -449c-68 -84 -148 -142.333 -240 -175c-90.667 -32 -194.334 -48 -311.001 -48h-583z
M544.002 341.001h145c207.333 0 311 109.667 311 329c0 100 -24 183 -72 249c-52 70 -135.667 105 -251 105h-133v-683z" />
    <glyph glyph-name="E" unicode="E" horiz-adv-x="1392" vert-adv-y="1428" 
d="M1284 1365v-341h-740v-166h648v-314h-648v-182h773v-362h-1183v1365h1150z" />
    <glyph glyph-name="F" unicode="F" horiz-adv-x="1274" vert-adv-y="1428" 
d="M1225 1365v-362h-681v-180h557v-341h-557v-482h-410v1365h1091z" />
    <glyph glyph-name="G" unicode="G" horiz-adv-x="1533" vert-adv-y="1428" 
d="M854 750l572.001 0.000976562v-750h-271l-26 117c-114 -98.667 -248.667 -148 -404 -148c-178.667 0 -329.667 64 -453 192c-129.333 133.333 -194 307 -194 521c0 211.333 63.333 383 190 515c128 132.667 293.333 199 496 199c220.667 0 392 -76.333 514 -229
c62.667 -77.333 103 -169.333 121 -276l-406 -7c-10 40 -27.667 73.333 -53 100c-44 47.333 -101.667 71 -173 71c-98 0 -169.333 -40.667 -214 -122c-34.667 -64 -52 -145 -52 -243c0 -115.333 22 -208.333 66 -279c48 -76.667 124 -115 228 -115
c73.333 0 133.666 22 180.999 66c25.333 23.333 44.333 52.666 57 87.999h-179v300z" />
    <glyph glyph-name="H" unicode="H" horiz-adv-x="1481" vert-adv-y="1428" 
d="M937 540h-393v-540h-410v1365h410v-463h393v463h410v-1365h-410v540z" />
    <glyph glyph-name="I" unicode="I" horiz-adv-x="699" vert-adv-y="1428" 
d="M561 1365v-1365h-423v1365h423z" />
    <glyph glyph-name="J" unicode="J" horiz-adv-x="1192" vert-adv-y="1428" 
d="M648 1365l410.001 0.000976562v-883c0 -124.667 -13.333 -213.667 -40 -267c-41.333 -84.667 -112.333 -149.334 -213 -194.001c-77.333 -34.667 -163 -52 -257 -52c-170.667 0 -303.334 53.667 -398.001 161c-79.333 90.667 -119 212.667 -119 366v86h396v-112
c0 -97.333 36.667 -146 110 -146c74 0 111 48.667 111 146v895z" />
    <glyph glyph-name="K" unicode="K" horiz-adv-x="1488" vert-adv-y="1428" 
d="M950 824l566 -824h-513l-332 530l-127 -134v-396h-410v1365h410v-444l390 444h528z" />
    <glyph glyph-name="L" unicode="L" horiz-adv-x="1201" vert-adv-y="1428" 
d="M557 1365v-1003h610v-362h-1033v1365h423z" />
    <glyph glyph-name="M" unicode="M" horiz-adv-x="1729" vert-adv-y="1428" 
d="M1023 0h-317l-201 833c1.33301 -62.667 2.33301 -147.667 3 -255l1 -149v-429h-375v1365h552l178 -732l180 732h551v-1365h-375v392l1 143c0.666992 118.667 1.66699 218 3 298z" />
    <glyph glyph-name="N" unicode="N" horiz-adv-x="1488" vert-adv-y="1428" 
d="M1354 0l-395.999 0.000976562l-419 724c2 -53.333 3.33301 -171 4 -353l1 -165v-206h-410v1365h400l416 -707c-2.66699 71.333 -4.33398 188.666 -5.00098 351.999l-1 137v218h410v-1365z" />
    <glyph glyph-name="O" unicode="O" horiz-adv-x="1565" vert-adv-y="1428" 
d="M792 1396c202 0 367.998 -65.998 497.998 -197.998c61.333 -62 109 -136.333 143 -223c35.333 -90.667 53 -188.334 53 -293.001c0 -210.667 -65.333 -382.334 -196 -515.001c-129.333 -132 -298.333 -198 -507 -198c-209.333 0 -378.666 66 -507.999 198
c-61.333 62 -109 136.333 -143 223c-35.333 90 -53 186.667 -53 290c0 146 33 276.333 99 391c64.667 112.667 157.334 198 278.001 256c96.667 46 208.667 69 336 69zM777.998 1055c-63.333 0 -118.669 -21.001 -166.002 -63.001c-41.333 -37.333 -71.666 -91 -90.999 -161
c-12.667 -46.667 -19 -96 -19 -148c0 -95.333 19.667 -177.666 59 -246.999c22.667 -40 54.667 -71.667 96 -95c37.333 -20.667 79.333 -31 126 -31c99.333 0 173 42 221 126c39.333 69.333 59 151 59 245c0 97.333 -19.667 180 -59 248
c-49.333 84 -124.666 126 -225.999 126z" />
    <glyph glyph-name="P" unicode="P" horiz-adv-x="1368" vert-adv-y="1428" 
d="M544 412l0.000976562 -412h-410v1365h654c128 0 227 -18.333 297 -55c87.333 -46 152 -115 194 -207c29.333 -65.333 44 -138.333 44 -219c0 -156 -53 -278 -159 -366c-54 -44.667 -112.333 -74 -175 -88c-56.667 -12 -120.334 -18 -191.001 -18h-254zM544.001 747h200
c56 0 98 12 126 36c29.333 26 44 60.333 44 103s-14.667 76.667 -44 102c-27.333 24 -69.333 36 -126 36h-200v-277z" />
    <glyph glyph-name="Q" unicode="Q" horiz-adv-x="1565" vert-adv-y="1428" 
d="M1328 209l165.001 -160.001l-184 -191l-191 185c-100.667 -49.333 -212.667 -74 -336 -74c-208.667 0 -377.667 66 -507 198c-130.667 132.667 -196 304.667 -196 516c0 210.667 65.333 382.334 196 515.001c129.333 132 298.666 198 507.999 198
c208.667 0 377.667 -66 507 -198c130.667 -132.667 196 -304 196 -514c0 -188 -52.667 -346.333 -158 -475zM1031 494.999c21.333 58 32.001 120.999 32.001 188.999c0 94 -19.667 175.667 -59 245c-48 84 -121.667 126 -221 126c-100 0 -174 -42 -222 -126
c-39.333 -69.333 -59 -151.333 -59 -246c0 -95.333 19.667 -177.666 59 -246.999c22.667 -40 54.667 -71.333 96 -94c37.333 -21.333 78.666 -32 123.999 -32c16.667 0 34.667 2 54 6l-112 108l184 191z" />
    <glyph glyph-name="R" unicode="R" horiz-adv-x="1446" vert-adv-y="1428" 
d="M544 479l0.000976562 -478.998h-410v1365h640c148 0 251 -8.33301 309 -25c96 -28 167 -79.667 213 -155c38 -62.667 57 -133.334 57 -212.001c0 -150 -67 -262.333 -201 -337c50.667 -24.667 90.334 -54.667 119.001 -90c38 -48.667 62 -116 72 -202l26 -228
c6 -50.667 16.667 -89.334 32 -116.001h-412c-14.667 23.333 -24.334 62 -29.001 116l-8 98c-6.66699 71.333 -17 124 -31 158c-18 42 -46 71.333 -84 88c-26.667 12 -67.334 18.333 -122.001 19h-171zM544.001 779.002l209 -0.00195312c64 0 110 9.66699 138 29
c34.667 24.667 52 60.334 52 107.001s-17.333 82.334 -52 107.001c-28 19.333 -74 29 -138 29h-209v-272z" />
    <glyph glyph-name="S" unicode="S" horiz-adv-x="1345" vert-adv-y="1428" 
d="M1213 960h-395.001c-23.333 81.333 -78.333 122 -165 122c-41.333 0 -76.666 -8.66699 -105.999 -26c-24.667 -14.667 -37 -33.334 -37 -56.001c0 -32 25.667 -55.333 77 -70l261 -76c142.667 -41.333 247 -89 313 -143c78 -64.667 117 -155 117 -271
c0 -152 -62.333 -270.667 -187 -356c-112 -76.667 -251.333 -115 -418 -115c-134 0 -250.667 25.333 -350 76c-117.333 60 -196 143.333 -236 250c-16 42.667 -26.667 97 -32 163h419c2.66699 -50.667 20.667 -89.334 54 -116.001c37.333 -30 88.666 -45 153.999 -45
c48 0 89.667 9.33301 125 28c36 18.667 54 44.334 54 77.001c0 22 -9.66699 40 -29 54c-17.333 12.667 -46.333 25.334 -87 38.001l-271 84c-103.333 32.667 -179.666 67.667 -228.999 105c-96.667 72.667 -145 170 -145 292c0 146.667 69 259 207 337
c98.667 56 216.667 84 354 84c220 0 376 -60.667 468 -182c48 -63.333 76 -148 84 -254z" />
    <glyph glyph-name="T" unicode="T" horiz-adv-x="1220" vert-adv-y="1428" 
d="M822 1003v-1003h-423v1003h-392v362h1206v-362h-391z" />
    <glyph glyph-name="U" unicode="U" horiz-adv-x="1503" vert-adv-y="1428" 
d="M959 1365h409.996v-881c0 -122 -22 -216.333 -66 -283c-57.333 -86.667 -143.666 -149.667 -258.999 -189c-83.333 -28.667 -180.666 -43 -291.999 -43c-195.333 0 -349.666 45.333 -462.999 136c-62.667 50 -105 108.333 -127 175c-18.667 55.333 -28 123.333 -28 204
v881h410v-842c0 -71.333 17.667 -123.666 53 -156.999c38.667 -37.333 90 -56 154 -56c64.667 0 116.334 18.667 155.001 56c35.333 33.333 53 85.666 53 156.999v842z" />
    <glyph glyph-name="V" unicode="V" horiz-adv-x="1259" vert-adv-y="1428" 
d="M859 0l-457 -0.000976562l-416 1365h430l136 -502c34 -129.333 62.667 -256.666 86 -381.999l10 47c23.333 117.333 49 229 77 335l134 502h413z" />
    <glyph glyph-name="W" unicode="W" horiz-adv-x="1819" vert-adv-y="1428" 
d="M760 0l-403 0.000976562l-371 1365h419l131 -639c11.333 -55.333 21 -121.333 29 -198c6.66699 65.333 17 131.333 31 198l132 639h369l131 -632c0.666992 -1.33301 4 -20.333 10 -57l9 -50c6 -34.667 10.667 -67.334 14 -98.001c3.33301 30 8 62.667 14 98
c7.33301 41.333 13.333 77 18 107l127 632h413l-352 -1365h-414l-115 590c-15.333 78 -27.333 165.333 -36 262c-10 -90.667 -23.667 -178 -41 -262z" />
    <glyph glyph-name="X" unicode="X" horiz-adv-x="1376" vert-adv-y="1428" 
d="M948 713l464 -713h-502l-229 394l-228 -394h-488l456 710l-452 655h508l208 -372l218 372h499z" />
    <glyph glyph-name="Y" unicode="Y" horiz-adv-x="1290" vert-adv-y="1428" 
d="M856 502v-502h-410v502l-484 863h451l234 -483l234 483h448z" />
    <glyph glyph-name="Z" unicode="Z" horiz-adv-x="1332" vert-adv-y="1428" 
d="M1262 1365v-362l-657 -641h678v-362h-1216v342l653 661h-630v362h1172z" />
    <glyph glyph-name="bracketleft" unicode="[" horiz-adv-x="865" vert-adv-y="1428" 
d="M770 1065h-285v-1127h285v-300h-633v1727h633v-300z" />
    <glyph glyph-name="backslash" unicode="\" horiz-adv-x="831" vert-adv-y="1428" 
d="M30 1365h362l439 -1365h-362z" />
    <glyph glyph-name="bracketright" unicode="]" horiz-adv-x="865" vert-adv-y="1428" 
d="M96 -62h285v1127h-285v300h633v-1727h-633v300z" />
    <glyph glyph-name="asciicircum" unicode="^" vert-adv-y="1428" 
d="M369 680h-363l276 696h461l275 -696h-362l-143 415z" />
    <glyph glyph-name="underscore" unicode="_" vert-adv-y="1428" 
d="M0 -94h1024v-241h-1024v241z" />
    <glyph glyph-name="grave" unicode="`" vert-adv-y="1428" 
d="M577 1365l107 -294h-286l-250 294h429z" />
    <glyph glyph-name="a" unicode="a" horiz-adv-x="1239" vert-adv-y="1428" 
d="M477 633h-351.001c10 110 43.667 194 101 252c88 88.667 223 133 405 133c154 0 276.667 -33.667 368 -101c85.333 -62.667 128 -164.334 128 -305.001v-464c0 -32 2 -59 6 -81c3.33301 -21.333 11.666 -43.666 24.999 -66.999h-370
c-15.333 30 -26.666 63.333 -33.999 100c-48 -36 -85.667 -61.333 -113 -76c-66 -34 -138 -51 -216 -51c-97.333 0 -179.333 26 -246 78c-66 50 -99 120.667 -99 212c0 79.333 22.667 144.333 68 195c42.667 46.667 112.334 79.667 209.001 99l287 55
c71.333 14 107 39.333 107 76c0 26.667 -12.667 47.667 -38 63c-24.667 14 -55 21 -91 21c-62 0 -105.333 -19 -130 -57c-11.333 -18 -17 -39.667 -17 -65c0 -3.33301 0.333008 -9 1 -17zM758.999 444l-164 -56c-59.333 -19.333 -96 -33.333 -110 -42
c-25.333 -14.667 -38 -35.667 -38 -63c0 -26.667 11 -48 33 -64c19.333 -14 44.333 -21 75 -21c62.667 0 114.667 21 156 63c32 32 48 75.333 48 130v53z" />
    <glyph glyph-name="b" unicode="b" horiz-adv-x="1258" vert-adv-y="1428" 
d="M111 0v1365h382v-466c41.333 37.333 77.333 63.666 108 78.999c52 26.667 109.333 40 172 40c130 0 233 -49.667 309 -149c74 -98 111 -220.333 111 -367c0 -156.667 -44 -286.334 -132 -389.001c-80 -93.333 -178.333 -140 -295 -140c-114 0 -211.667 47.333 -293 142
v-115h-362zM643 724.002c-56 0 -97.999 -23.666 -125.999 -70.999c-24.667 -40 -37 -92.667 -37 -158c0 -64 12.333 -116.333 37 -157c28 -47.333 70.667 -71 128 -71c58 0 101 23.667 129 71c24.667 41.333 37 93.666 37 156.999c0 65.333 -12.333 118 -37 158
c-28.667 47.333 -72.334 71 -131.001 71z" />
    <glyph glyph-name="c" unicode="c" horiz-adv-x="1199" vert-adv-y="1428" 
d="M1132 610h-369.999c-18.667 89.333 -68.334 134 -149.001 134c-51.333 0 -91 -19 -119 -57c-34.667 -47.333 -52 -110.333 -52 -189c0 -66 12 -122.667 36 -170c28 -55.333 72.667 -83 134 -83c56 0 99 23.333 129 70c17.333 27.333 28.333 62 33 104h367
c-6.66699 -62.667 -17 -113 -31 -151c-38.667 -110 -115.667 -191 -231 -243c-77.333 -35.333 -166 -53 -266 -53c-166 0 -299 48.667 -399 146c-98.667 96 -148 221.333 -148 376c0 154 51.333 279.667 154 377s235 146 397 146c110 0 208 -23.667 294 -71
c133.333 -73.333 207 -185.333 221 -336z" />
    <glyph glyph-name="d" unicode="d" horiz-adv-x="1264" vert-adv-y="1428" 
d="M1154 1365v-1365h-362v90c-32.667 -34.667 -62.667 -60 -90 -76c-49.333 -28 -108.333 -42 -177 -42c-146.667 0 -260.667 52.333 -342 157c-78 100.667 -117 226.334 -117 377.001c0 141.333 33.667 257.666 101 348.999c36.667 50 84 89.667 142 119
c58 28.667 120.333 43 187 43c70.667 0 134 -15.667 190 -47c23.333 -12.667 52 -34 86 -64v459h382zM614 723c-56.667 0 -99.335 -23.666 -128.002 -70.999c-25.333 -40.667 -38 -93 -38 -157c0 -64.667 12.667 -117.334 38 -158.001
c28.667 -47.333 72.334 -71 131.001 -71s102.334 23.667 131.001 71c24.667 40 37 92.333 37 157c0 66 -12.333 118.667 -37 158c-29.333 47.333 -74 71 -134 71z" />
    <glyph glyph-name="e" unicode="e" horiz-adv-x="1238" vert-adv-y="1428" 
d="M1172 404l-726.998 -0.00195312c6 -44 22.667 -80 50 -108c38.667 -38.667 88 -58 148 -58c65.333 0 112 22.667 140 68h372c-18.667 -78 -64.334 -146.333 -137.001 -205c-106 -86 -234.667 -129 -386 -129c-170 0 -306.667 49 -410 147
c-48.667 46.667 -86.667 103.334 -114 170.001c-28 66.667 -42 136.334 -42 209.001c0 152.667 55 278.667 165 378c103.333 94 233.666 141 390.999 141c176 0 315.333 -59 418 -177c88.667 -102 133 -234.333 133 -397c0 -8.66699 -0.333008 -21.667 -1 -39z
M788.002 608.998c-4 37.333 -15.332 68 -33.999 92c-32.667 42 -78 63 -136 63c-58.667 0 -104.334 -21 -137.001 -63c-18.667 -24 -30 -54.667 -34 -92h341z" />
    <glyph glyph-name="f" unicode="f" horiz-adv-x="710" vert-adv-y="1428" 
d="M710 990l-0.000976562 -238.999h-178v-751h-382v751h-140v239h140v38c0 73.333 10.667 130.666 32 171.999c30.667 62 75.334 106.667 134.001 134c45.333 20.667 104 31 176 31h218v-266h-90c-58 0.666992 -87.333 -23.333 -88 -72v-37h178z" />
    <glyph glyph-name="g" unicode="g" horiz-adv-x="1261" vert-adv-y="1428" 
d="M782 990h369v-848c0 -168 -49.333 -292 -148 -372c-92 -74 -216.333 -111 -373 -111c-184.667 0 -320 44.333 -406 133c-51.333 52 -79.666 116.333 -84.999 193h368c18 -49.333 57.333 -74 118 -74c94 0 141 45.333 141 136v103c-82 -59.333 -171 -89 -267 -89
c-92 0 -175 26 -249 78c-68.667 48 -118.334 114 -149.001 198c-23.333 62.667 -35 129.667 -35 201c0 140.667 40.667 256 122 346c81.333 89.333 185.666 134 312.999 134c110.667 0 204.334 -44 281.001 -132v104zM609 731c-54 0 -96.667 -22.332 -128 -66.999
c-26.667 -38 -40 -83 -40 -135s13.333 -97 40 -135c31.333 -44.667 75 -67 131 -67s99.667 22.333 131 67c26 37.333 39 82 39 134c0 53.333 -13 98.666 -39 135.999c-31.333 44.667 -76 67 -134 67z" />
    <glyph glyph-name="h" unicode="h" horiz-adv-x="1244" vert-adv-y="1428" 
d="M111 0l0.000976562 1365h382v-458c40.667 32 76 55.333 106 70c54 26.667 112.667 40 176 40c107.333 0 194.333 -31.667 261 -95c39.333 -38 65.666 -80.667 78.999 -128c12 -41.333 18 -89 18 -143v-651h-382v547c0 108.667 -41.333 163 -124 163
c-42 0 -75.667 -15 -101 -45c-22 -26 -33 -65.333 -33 -118v-547h-382z" />
    <glyph glyph-name="i" unicode="i" horiz-adv-x="603" vert-adv-y="1428" 
d="M493 990v-990h-382v990h382zM493 1365v-273h-382v273h382z" />
    <glyph glyph-name="j" unicode="j" horiz-adv-x="607" vert-adv-y="1428" 
d="M114 990l382.001 -0.000976562v-1009c4 -196.667 -100.667 -295 -314 -295h-245v294h64c43.333 0.666992 72.666 7.66699 87.999 21c16 14.667 24.333 41.334 25 80.001v909zM496.001 1365v-273h-382v273h382z" />
    <glyph glyph-name="k" unicode="k" horiz-adv-x="1192" vert-adv-y="1428" 
d="M813 606l406 -606h-451l-203 348l-72 -74v-274h-382v1365h382v-664l247 289h446z" />
    <glyph glyph-name="l" unicode="l" horiz-adv-x="603" vert-adv-y="1428" 
d="M493 1365v-1365h-382v1365h382z" />
    <glyph glyph-name="m" unicode="m" horiz-adv-x="1849" vert-adv-y="1428" 
d="M111 990l361.999 -0.000976562v-128c86.667 103.333 188.334 155 305.001 155c121.333 0 215 -51.667 281 -155c89.333 104 194 156 314 156c110.667 0 199.667 -34.333 267 -103c39.333 -40 65.333 -85.333 78 -136c13.333 -51.333 20 -109.666 20 -174.999v-604h-382
v547c0 109.333 -39 164 -117 164c-38.667 0 -70 -15.333 -94 -46c-20.667 -26 -31 -65.333 -31 -118v-547h-382v547c0 108.667 -38.333 163 -115 163c-38.667 0 -70 -15 -94 -45c-20 -26 -30 -65.333 -30 -118v-547h-382v990z" />
    <glyph glyph-name="n" unicode="n" horiz-adv-x="1247" vert-adv-y="1428" 
d="M111 990h362v-116c77.333 96 175.333 144 294 144c107.333 0 195 -32.667 263 -98c71.333 -69.333 107 -171.333 107 -306v-614h-382v540c0 102.667 -43.333 154 -130 154c-88 0 -132 -51.333 -132 -154v-540h-382v990z" />
    <glyph glyph-name="o" unicode="o" horiz-adv-x="1239" vert-adv-y="1428" 
d="M628 1017c160.667 0 293.667 -53 399 -159c98.667 -98.667 148 -219.667 148 -363c0 -142.667 -49.333 -263.667 -148 -363c-105.333 -106 -240.666 -159 -405.999 -159c-166.667 0 -302.334 53 -407.001 159c-98.667 99.333 -148 220 -148 362
c0 94 23.333 181.667 70 263c49.333 86 121 152.333 215 199c80.667 40.667 173 61 277 61zM618 744c-52 0 -93 -20.333 -123 -61c-31.333 -41.333 -47 -104 -47 -188s15.667 -146.667 47 -188c30 -40.667 71.667 -61 125 -61c54.667 0 96.667 20.333 126 61
c31.333 42 47 104 47 186c0 167.333 -58.333 251 -175 251z" />
    <glyph glyph-name="p" unicode="p" horiz-adv-x="1264" vert-adv-y="1428" 
d="M111 990h362v-87c74.667 76.667 167 115 277 115c148.667 0 263.667 -56.333 345 -169c69.333 -96 104 -218 104 -366c0 -136.667 -31 -249.667 -93 -339c-78.667 -114 -191.667 -171 -339 -171c-106 0 -197.333 35.333 -274 106v-393h-382v1304zM646 724
c-56.667 0 -99.667 -23.667 -129 -71c-24.667 -40 -37 -92.667 -37 -158c0 -64.667 12.333 -117 37 -157c29.333 -47.333 73.333 -71 132 -71c58 0 101.667 23.667 131 71c24.667 40.667 37 93 37 157c0 66 -12.333 118.667 -37 158c-30 47.333 -74.667 71 -134 71z" />
    <glyph glyph-name="q" unicode="q" horiz-adv-x="1272" vert-adv-y="1428" 
d="M1162 990l-0.000976562 -1304h-382v406c-32.667 -32.667 -61 -56.334 -85 -71.001c-53.333 -32 -115.333 -48 -186 -48c-95.333 0 -180.666 27.667 -255.999 83c-124.667 91.333 -187 236.666 -187 435.999c0 170 43.333 302.667 130 398
c77.333 84.667 179.333 127 306 127c116.667 0 216 -47.667 298 -143v116h362zM617.999 723.002c-58 0 -101.667 -23.667 -131 -71c-26 -40 -39 -92.333 -39 -157c0 -64 13 -116.333 39 -157c29.333 -47.333 74 -71 134 -71s104.667 23.667 134 71c25.333 40 38 92 38 156
c0 66 -12.667 118.667 -38 158c-30 47.333 -75.667 71 -137 71z" />
    <glyph glyph-name="r" unicode="r" horiz-adv-x="921" vert-adv-y="1428" 
d="M111 990h362.001v-136c83.333 108.667 180.666 163 291.999 163c34 0 74 -6.66699 120 -20v-343c-62.667 23.333 -113.667 35 -153 35c-74 0 -133.333 -23.333 -178 -70c-40.667 -41.333 -61 -97 -61 -167v-452h-382v990z" />
    <glyph glyph-name="s" unicode="s" horiz-adv-x="1106" vert-adv-y="1428" 
d="M1024 698l-355 -0.000976562c-3.33301 28 -10 47.667 -20 59c-22 23.333 -56.667 35 -104 35c-26.667 0 -49 -4.33301 -67 -13c-22 -10 -33 -25 -33 -45c0 -32 31.667 -54 95 -66l176 -35c112 -22 193 -53 243 -93c66.667 -52 100 -124.667 100 -218
c0 -109.333 -47.333 -194.666 -142 -255.999c-95.333 -62 -216.333 -93 -363 -93c-184.667 0 -323 47 -415 141c-54.667 56 -85 130.667 -91 224h366c12 -79.333 61.667 -119 149 -119c32 0 59 6.66699 81 20c22 12.667 33 29.667 33 51c0 32 -30 55 -90 69l-223 50
c-196.667 44 -295 140.333 -295 289c0 98 43.667 174.667 131 230c92.667 59.333 212 89 358 89c181.333 0 311.333 -42 390 -126c46 -50 71.333 -114.333 76 -193z" />
    <glyph glyph-name="t" unicode="t" horiz-adv-x="750" vert-adv-y="1428" 
d="M713 990l0.000976562 -239h-178v-368c0 -42 7.33301 -71 22 -87c18 -20 44.667 -30 80 -30c28 0 53.333 3.33301 76 10v-260c-80.667 -20 -151.334 -30 -212.001 -30c-112 0 -200 33.333 -264 100c-56 59.333 -84 154 -84 284v381h-146v239h146v293h382v-293h178z" />
    <glyph glyph-name="u" unicode="u" horiz-adv-x="1249" vert-adv-y="1428" 
d="M1139 990v-990h-362v127c-79.333 -103.333 -180.666 -155 -303.999 -155c-116 0 -208.333 42.667 -277 128c-34 42.667 -56.667 88.667 -68 138c-11.333 50 -17 106.333 -17 169v583h382v-522c0 -53.333 9 -93.333 27 -120c24 -34.667 58.333 -52 103 -52
c43.333 0 77.666 15.667 102.999 47c20.667 26 31 62 31 108v539h382z" />
    <glyph glyph-name="v" unicode="v" horiz-adv-x="1078" vert-adv-y="1428" 
d="M750 0l-421 -0.000976562l-336 990h380l122 -406c18 -57.333 32 -112.666 42 -165.999c10 50 24 105.333 42 166l119 406h387z" />
    <glyph glyph-name="w" unicode="w" horiz-adv-x="1669" vert-adv-y="1428" 
d="M695 0l-389.996 0.000976562l-312 990h396l97 -366c15.333 -56 28.666 -114.667 39.999 -176c11.333 58.667 24.666 117.334 39.999 176.001l93 366h349l104 -366c14 -50.667 27.333 -109.334 40 -176.001c11.333 56 24.666 114.667 39.999 176l90 366h394l-297 -990
h-395l-99 366l-13 58c-13.333 51.333 -25 99 -35 143c-8.66699 -38.667 -20.334 -86.334 -35.001 -143.001l-14 -58z" />
    <glyph glyph-name="x" unicode="x" horiz-adv-x="1057" vert-adv-y="1428" 
d="M725 520l355 -520h-423l-142 221l-140 -221h-415l348 520l-313 470h398l122 -183l117 183h404z" />
    <glyph glyph-name="y" unicode="y" horiz-adv-x="1111" vert-adv-y="1428" 
d="M-7 990l403.999 0.000976562l104 -365c12.667 -48.667 31.334 -124.334 56.001 -227.001c6.66699 24.667 15.667 60 27 106l31 121l99 365h404l-359 -990c-31.333 -86 -59 -145 -83 -177c-37.333 -52.667 -82.333 -89 -135 -109c-48 -18.667 -105.667 -28 -173 -28h-271
v294h134c34 0 59 7.66699 75 23c16 14.667 24 33 24 55c0 18.667 -5 41.667 -15 69z" />
    <glyph glyph-name="z" unicode="z" horiz-adv-x="1072" vert-adv-y="1428" 
d="M1008 294v-294h-957v297l440 399h-410v294h908v-294l-448 -402h467z" />
    <glyph glyph-name="braceleft" unicode="{" vert-adv-y="1428" 
d="M537 491c40 -26.667 67.3311 -51.999 81.998 -75.999c25.333 -40.667 38.666 -102 39.999 -184v-121c0 -49.333 3 -80.333 9 -93c8.66699 -20 26.334 -33 53.001 -39c22 -5.33301 55 -8 99 -8c10 0 24.667 0.333008 44 1v-366
c-37.333 -0.666992 -82.666 -2.33398 -135.999 -5.00098c-34.667 -1.33301 -70.667 -2 -108 -2c-104 0 -174.667 6.33301 -212 19c-73.333 24 -121 69.667 -143 137c-12.667 38 -19 85 -19 141v261c-1.33301 64 -10.333 106.333 -27 127
c-22.667 27.333 -51 43.666 -85 48.999v338c38.667 7.33301 67.334 23.333 86.001 48c8 11.333 14.333 26.833 19 46.5s7 39.834 7 60.501v261c0 116 29.333 196 88 240c36.667 28 82.667 45 138 51c36 4 86 6 150 6c39.333 0 88 -1.33301 146 -4
c28.667 -1.33301 60.667 -2.33301 96 -3v-387l-31 1h-16c-66.667 0 -109.667 -7 -129 -21c-13.333 -10 -21.666 -23.333 -24.999 -40c-2.66699 -14 -4 -40.333 -4 -79v-100c0 -85.333 -14 -148 -42 -188c-14.667 -20 -41.334 -43.667 -80.001 -71z" />
    <glyph glyph-name="bar" unicode="|" vert-adv-y="1428" 
d="M301 1365h421v-1706h-421v1706z" />
    <glyph glyph-name="braceright" unicode="}" vert-adv-y="1428" 
d="M487 491c-40.667 26.667 -68.332 51.9971 -82.999 75.9971c-25.333 39.333 -38.666 100.333 -39.999 183v121c0 48.667 -3 79.667 -9 93c-8.66699 21.333 -26.334 34.666 -53.001 39.999c-22.667 5.33301 -55 8 -97 8c-10 0 -25 -0.333008 -45 -1v365
c38 0.666992 83 2.33398 135 5.00098c37.333 1.33301 72 2 104 2c106 0 178 -6.33301 216 -19c73.333 -24 121 -69.667 143 -137c12.667 -38 19 -85 19 -141v-261c1.33301 -64 10.333 -106.333 27 -127c23.333 -27.333 52 -43.666 86 -48.999v-338
c-39.333 -7.33301 -68.333 -23.333 -87 -48c-10.667 -16.667 -18 -41 -22 -73c-2.66699 -19.333 -4 -30.666 -4 -33.999v-260c0 -116.667 -29.333 -197 -88 -241c-37.333 -28 -83.333 -44.667 -138 -50c-35.333 -4 -86 -6 -152 -6c-36 0 -84 1 -144 3
c-28.667 1.33301 -60.334 2.33301 -95.001 3v387c30.667 -0.666992 47.334 -1 50.001 -1c64 0 105.667 7 125 21c13.333 10 21.666 23.333 24.999 40c2.66699 14.667 4 41.334 4 80.001v99c0 85.333 14 148 42 188c14.667 20.667 41.667 44.667 81 72z" />
    <glyph glyph-name="asciitilde" unicode="~" horiz-adv-x="1365" vert-adv-y="1428" 
d="M385 1087l-198.001 168.001c27.333 72 55.666 129.333 84.999 172c64.667 96 144.667 144 240 144c31.333 0 69 -7.33301 113 -22c8 -2.66699 45.667 -16 113 -40c72.667 -26 117.334 -39 134.001 -39c24.667 0 47.667 11.667 69 35c11.333 12 26.333 36 45 72l198 -167
c-26 -64.667 -48.167 -112.834 -66.5 -144.501s-40.833 -61.834 -67.5 -90.501c-54 -55.333 -117.333 -83 -190 -83c-39.333 0 -115.666 21 -228.999 63c-68.667 25.333 -113.667 38 -135 38c-22 0 -42.667 -10 -62 -30c-14 -15.333 -30.333 -40.666 -49 -75.999z" />
    <glyph glyph-name="nbspace" unicode="&#xa0;" horiz-adv-x="614" vert-adv-y="1428" 
 />
    <glyph glyph-name="exclamdown" unicode="&#xa1;" horiz-adv-x="644" vert-adv-y="1428" 
d="M224 485h195l101 -539v-321h-396v321zM520 594h-396v396h396v-396z" />
    <glyph glyph-name="cent" unicode="&#xa2;" horiz-adv-x="1338" vert-adv-y="1428" 
d="M748 1191c114 -10.667 211 -46.668 291 -108.001c97.333 -76.667 150.333 -175 159 -295h-370c-19.333 88.667 -69.333 133 -150 133c-50.667 0 -90 -18.667 -118 -56c-35.333 -46.667 -53 -109.667 -53 -189c0 -66.667 12 -123.667 36 -171
c28 -54.667 72.667 -82 134 -82c56.667 0 100 23.333 130 70c17.333 26.667 28 61 32 103h367c-8.66699 -86 -28 -156.667 -58 -212c-60.667 -109.333 -161.667 -181 -303 -215c-30 -7.33301 -62.333 -12.666 -97 -15.999v-153h-158v156
c-91.333 10.667 -171.333 38.334 -240 83.001c-72 46.667 -127.333 110 -166 190c-35.333 73.333 -53 154.333 -53 243c0 120 32.333 224 97 312c68.667 93.333 164 156.666 286 189.999c24.667 6 50 10.667 76 14v177h158v-174z" />
    <glyph glyph-name="sterling" unicode="&#xa3;" horiz-adv-x="1338" vert-adv-y="1428" 
d="M822 733v-143.999h-139c-9.33301 -48.667 -24.666 -89.334 -45.999 -122.001c-26 -38.667 -68 -75.334 -126 -110.001c66.667 22 120.667 33 162 33c42 0 99.333 -12.333 172 -37c39.333 -13.333 72 -20 98 -20c46 0 97.667 32 155 96l138 -334
c-50 -44 -97.667 -75.333 -143 -94s-96 -28 -152 -28c-49.333 0 -105 9 -167 27c-11.333 3.33301 -52.666 18.666 -123.999 45.999c-68.667 26 -123.334 39 -164.001 39c-53.333 0 -113.333 -26.333 -180 -79l-200 294c110 63.333 165 138.333 165 225
c0 20.667 -4.66699 42 -14 64h-151v144h77c-48.667 64 -73 127 -73 189c0 66.667 17 130.667 51 192c97.333 176.667 275 265 533 265c127.333 0 237.666 -23.333 330.999 -70c91.333 -45.333 155.333 -117.333 192 -216c22 -60 36.333 -136.667 43 -230h-383
c-4 50.667 -12 89 -24 115c-11.333 24.667 -29.333 44.334 -54 59.001c-28 16.667 -59 25 -93 25c-40 0 -75 -10.667 -105 -32c-37.333 -26.667 -56 -61 -56 -103c0 -26.667 6.33301 -50.667 19 -72c10.667 -18 26 -40.333 46 -67c14 -19.333 26 -37.666 36 -54.999h176z
" />
    <glyph glyph-name="currency" unicode="&#xa4;" horiz-adv-x="1504" vert-adv-y="1428" 
d="M54 220l217 216.001c-40.667 83.333 -61 167.666 -61 252.999c0 88.667 23.333 177.667 70 267l-224 222l214 213l228 -228c86 41.333 170.333 62 253 62c84.667 0 169 -20 253 -60l225 223l211 -211l-217 -217c48.667 -88 73 -178.333 73 -271
c0 -83.333 -20.667 -167.333 -62 -252l216 -216l-210 -213l-215 215c-88 -49.333 -179.333 -74 -274 -74c-87.333 0 -177.333 24.333 -270 73l-216 -213zM752 875.001c-48 0 -89.667 -17.334 -125 -52.001c-36 -35.333 -54 -78.666 -54 -129.999c0 -50 17.667 -93 53 -129
s78 -54 128 -54s92.333 17.667 127 53c36 36 54 79.333 54 130c0 51.333 -18 94.333 -54 129c-36.667 35.333 -79.667 53 -129 53z" />
    <glyph glyph-name="yen" unicode="&#xa5;" horiz-adv-x="1338" vert-adv-y="1428" 
d="M880 503v-503h-410v503h-326v191h219l-377 671h451l234 -482l234 482h447l-368 -671h211v-191h-315z" />
    <glyph glyph-name="brokenbar" unicode="&#xa6;" vert-adv-y="1428" 
d="M301 1365h421v-747h-421v747zM301 314h421v-655h-421v655z" />
    <glyph glyph-name="section" unicode="&#xa7;" horiz-adv-x="1400" vert-adv-y="1428" 
d="M1155 993l-318.002 0.00195312c-6.66699 84.667 -47.667 127 -123 127c-26.667 0 -50 -6.66699 -70 -20c-22 -15.333 -33 -35 -33 -59c0 -35.333 25 -62.666 75 -81.999l354 -137c160 -62.667 240 -163.334 240 -302.001c0 -122 -63.667 -215 -191 -279
c64.667 -66.667 97 -141.334 97 -224.001c0 -114 -47 -207 -141 -279c-87.333 -66.667 -199 -100 -335 -100c-180 0 -311 54 -393 162c-48 64 -72.667 147.333 -74 250h322c2.66699 -36 15.334 -63.667 38.001 -83c27.333 -23.333 61 -35 101 -35
c46.667 0 80.334 12.667 101.001 38c12.667 16 19 34 19 54c0 39.333 -22.667 67.666 -68 84.999l-362 137c-182.667 70 -274 176.667 -274 320c0 132 68 224.667 204 278c-50 63.333 -75 128 -75 194c0 70 20.333 133.333 61 190c43.333 60 107 104.667 191 134
c59.333 20.667 124 31 194 31c172 0 300 -58.667 384 -176c44.667 -61.333 70 -136 76 -224zM519.998 537.002l311.001 -120c19.333 -7.33301 35 -11 47 -11c20.667 0 37.667 6.66699 51 20c10.667 11.333 16 26 16 44c0 19.333 -6.66699 34.666 -20 45.999
c-12.667 10.667 -36.667 22.667 -72 36l-254 98c-34 13.333 -60.667 20 -80 20c-22.667 0 -40.334 -8.33301 -53.001 -25c-8 -10 -12 -21.667 -12 -35c0 -31.333 22 -55.666 66 -72.999z" />
    <glyph glyph-name="dieresis" unicode="&#xa8;" vert-adv-y="1428" 
d="M446 1365v-294h-352v294h352zM930 1365v-294h-352v294h352z" />
    <glyph glyph-name="copyright" unicode="&#xa9;" horiz-adv-x="1555" vert-adv-y="1428" 
d="M1140 607c-6.66699 -84.667 -34.667 -155.333 -84 -212c-66 -75.333 -158.333 -113 -277 -113c-126 0 -224.667 43.667 -296 131c-60 74 -90 166.667 -90 278c0 115.333 36 212 108 290c71.333 77.333 166 116 284 116c111.333 0 201 -37.333 269 -112
c50 -54.667 76.667 -117.334 80 -188.001h-182c-6.66699 24.667 -20.334 44 -41.001 58c-32 23.333 -73 35 -123 35c-57.333 0 -98.666 -23.333 -123.999 -70c-19.333 -36 -29 -79.667 -29 -131c0 -53.333 10.333 -97.666 31 -132.999c25.333 -44.667 66 -67 122 -67
c97.333 0 153.333 39.333 168 118h184zM790 1396c126.667 0 246.668 -34.9971 360.001 -104.997c113.333 -70.667 200 -165.334 260 -284.001c52 -102.667 78 -211 78 -325c0 -133.333 -34.667 -257.333 -104 -372c-69.333 -114 -163 -201.333 -281 -262
c-101.333 -52.667 -209 -79 -323 -79c-132 0 -255 34.667 -369 104c-114.667 69.333 -202.667 164 -264 284c-52.667 102.667 -79 210.667 -79 324c0 135.333 35 260.666 105 375.999c68.667 113.333 164 200.666 286 261.999c101.333 51.333 211.666 77 330.999 77z
M774.001 1225c-93.333 0 -182.669 -26.333 -268.002 -79c-84.667 -53.333 -149.667 -125.666 -195 -216.999c-38.667 -78 -58 -160.333 -58 -247c0 -150.667 52.333 -279.334 157 -386.001c102.667 -104.667 225.667 -157 369 -157c144.667 0 268.334 53 371.001 159
c102 106 153 233.333 153 382c0 102.667 -25.667 198 -77 286c-50.667 86 -120 152.667 -208 200c-73.333 39.333 -154.666 59 -243.999 59z" />
    <glyph glyph-name="ordfeminine" unicode="&#xaa;" horiz-adv-x="803" vert-adv-y="1428" 
d="M321 920l-235.003 -0.000976562c6.66699 70.667 29.334 124.334 68.001 161.001c55.333 52.667 140.333 79 255 79c96.667 0 174.334 -20 233.001 -60c55.333 -38 83 -99.667 83 -185v-275c0 -18.667 1 -34 3 -46c2.66699 -13.333 10 -29.333 22 -48h-249
c-9.33301 18 -16.333 35.667 -21 53c-64.667 -46 -130.667 -69 -198 -69c-61.333 0 -113.666 15.667 -156.999 47s-65 75 -65 131c0 98 59.333 158 178 180l178 33c40 8 60 20.667 60 38c0 28 -24 42 -72 42c-55.333 0 -83 -22 -83 -66v-15zM479.997 804.999l-92 -30.001
c-36 -10.667 -58 -18.667 -66 -24c-12.667 -7.33301 -19 -17.666 -19 -30.999c0 -28.667 19.667 -43 59 -43c36.667 0 67 12 91 36c18 17.333 27 41 27 71v21z" />
    <glyph glyph-name="guillemotleft" unicode="&#xab;" horiz-adv-x="833" vert-adv-y="1428" 
d="M746 72l-312 256v355l312 255v-306l-164 -127l164 -127v-306zM386 72l-312 256v355l312 255v-306l-164 -127l164 -127v-306z" />
    <glyph glyph-name="logicalnot" unicode="&#xac;" vert-adv-y="1428" 
d="M548 0v249h-480v366h887v-615h-407z" />
    <glyph glyph-name="sfthyphen" unicode="&#xad;" horiz-adv-x="604" vert-adv-y="1428" 
d="M604 669v-328h-604v328h604z" />
    <glyph glyph-name="registered" unicode="&#xae;" horiz-adv-x="1555" vert-adv-y="1428" 
d="M481 1086h331c78.667 0 139 -11.667 181 -35c72.667 -41.333 109 -103.333 109 -186c0 -88.667 -40.333 -151.667 -121 -189c34 -13.333 60.333 -37.333 79 -72c11.333 -22.667 19.333 -51.667 24 -87c0.666992 -10 2.66699 -42 6 -96c2.66699 -42 9 -79.667 19 -113
h-227c-8.66699 19.333 -15 55.666 -19 108.999c-4 78 -16 129 -36 153c-18.667 22.667 -46.667 35.334 -84 38.001h-22v-300h-240v778zM721 942v-199h45c34.667 0 59 7 73 21c17.333 17.333 26 44 26 80c0 65.333 -30.667 98 -92 98h-52zM790 1396
c126.667 0 246.668 -34.9971 360.001 -104.997c113.333 -70.667 200 -165.334 260 -284.001c52 -102.667 78 -211 78 -325c0 -133.333 -34.667 -257.333 -104 -372c-69.333 -114 -163 -201.333 -281 -262c-101.333 -52.667 -209 -79 -323 -79c-132 0 -255 34.667 -369 104
c-114.667 69.333 -202.667 164 -264 284c-52.667 102.667 -79 210.667 -79 324c0 135.333 35 260.666 105 375.999c68.667 113.333 164 200.666 286 261.999c101.333 51.333 211.666 77 330.999 77zM774.001 1225c-93.333 0 -182.668 -26.333 -268.001 -79
c-85.333 -53.333 -150.333 -125.333 -195 -216c-38.667 -78 -58 -160.333 -58 -247c0 -151.333 52.333 -280.333 157 -387c102.667 -104.667 225.667 -157 369 -157c144.667 0 268 53 370 159c102.667 106 154 233.333 154 382c0 102.667 -25.667 198 -77 286
c-50.667 86 -120 152.667 -208 200c-73.333 39.333 -154.666 59 -243.999 59z" />
    <glyph glyph-name="overscore" unicode="&#xaf;" vert-adv-y="1428" 
d="M0 1830h1024v-241h-1024v241z" />
    <glyph glyph-name="degree" unicode="&#xb0;" vert-adv-y="1428" 
d="M517 1388c95.333 0 177.668 -37 247.001 -111c61.333 -64.667 92 -142.667 92 -234c0 -98.667 -35 -181.667 -105 -249c-66.667 -64.667 -146.334 -97 -239.001 -97c-102 0 -187.333 37.667 -256 113c-59.333 65.333 -89 142 -89 230c0 71.333 19.667 137 59 197
c34.667 52 82.334 91.667 143.001 119c47.333 21.333 96.666 32 147.999 32zM507.002 1236c-45.333 0 -86 -17.332 -122 -51.999c-41.333 -40 -62 -87.333 -62 -142c0 -47.333 15.333 -89.333 46 -126c36.667 -45.333 84 -68 142 -68c48 0 91 18 129 54
c40 38 60 83.333 60 136c0 53.333 -17.333 98.666 -52 135.999c-38.667 41.333 -85.667 62 -141 62z" />
    <glyph glyph-name="plusminus" unicode="&#xb1;" vert-adv-y="1428" 
d="M2 853h411v419h196v-419h414v-189h-414v-398h-196v398h-411v189zM2 187h1021v-189h-1021v189z" />
    <glyph glyph-name="twosuperior" unicode="&#xb2;" horiz-adv-x="901" vert-adv-y="1428" 
d="M824 751l0.000976562 -205.003h-734c-0.666992 89.333 25.666 163.333 78.999 222c32.667 33.333 80.334 70.666 143.001 111.999c3.33301 2.66699 43.666 28.667 120.999 78c44 28.667 74 52.334 90 71.001c16.667 18.667 25 38.667 25 60
c0 24.667 -9.66699 45.334 -29 62.001c-18 14.667 -40.667 22 -68 22c-52.667 0 -88.667 -19.667 -108 -59c-8.66699 -17.333 -13.667 -53.666 -15 -108.999h-231v38c0 106 33.667 187.333 101 244c67.333 57.333 156 86 266 86c95.333 0 174.333 -23 237 -69
c69.333 -50 104 -116 104 -198c0 -70.667 -29 -133 -87 -187c-24 -21.333 -83.667 -61 -179 -119c-24.667 -15.333 -47.667 -31.666 -69 -48.999h354z" />
    <glyph glyph-name="threesuperior" unicode="&#xb3;" horiz-adv-x="901" vert-adv-y="1428" 
d="M369 897l-0.000976562 154.001c24 -0.666992 38.667 -1 44 -1c80.667 0 121 22.667 121 68c0 24.667 -10.667 43.667 -32 57c-18 12 -39.667 18 -65 18c-42.667 0 -73 -13.667 -91 -41c-8 -12 -12.667 -34 -14 -66h-234c2.66699 84.667 28 150.667 76 198
c60 59.333 149.333 89 268 89c94.667 0 172.334 -21.333 233.001 -64c62 -43.333 93 -100.333 93 -171c0 -59.333 -31.667 -108.333 -95 -147c83.333 -42 125 -104.333 125 -187c0 -78.667 -33.333 -144.334 -100 -197.001c-66 -51.333 -152 -77 -258 -77
c-150.667 0 -256 45.667 -316 137c-32.667 49.333 -49 111 -49 185v9h236v-13c0 -36 9.33301 -64.667 28 -86c22 -26 53.333 -39 94 -39c33.333 0 60 8.33301 80 25c18.667 16 28 36.333 28 61c0 28.667 -11.667 51 -35 67c-22.667 15.333 -51 23 -85 23
c-0.666992 0 -18 -0.666992 -52 -2z" />
    <glyph glyph-name="acute" unicode="&#xb4;" vert-adv-y="1428" 
d="M460 1365h429l-249 -294h-287z" />
    <glyph glyph-name="mu" unicode="&#xb5;" vert-adv-y="1428" 
d="M33 -355l0.00195312 1338h352v-483c0 -66 4 -111 12 -135c9.33301 -26.667 24.666 -47.667 45.999 -63c22.667 -16.667 48 -25 76 -25c62.667 0 101 33.667 115 101c4 18 6 58.667 6 122v483h351v-983h-351v100c-28 -77.333 -70.333 -116 -127 -116
c-52.667 0 -95.334 34.333 -128.001 103v-442h-352z" />
    <glyph glyph-name="paragraph" unicode="&#xb6;" horiz-adv-x="1370" vert-adv-y="1428" 
d="M533 -232l0.00195312 893.999c-14.667 -0.666992 -25.334 -1 -32.001 -1c-55.333 0 -112.333 13.333 -171 40c-124 56 -186 158.667 -186 308c0 142.667 56.333 244 169 304c47.333 24.667 99.666 40.334 156.999 47.001c28.667 3.33301 77.667 5 147 5h553v-148h-97
v-1449h-193v1449h-154v-1449h-193z" />
    <glyph glyph-name="middot" unicode="&#xb7;" horiz-adv-x="617" vert-adv-y="1428" 
d="M111 703h396v-396h-396v396z" />
    <glyph glyph-name="cedilla" unicode="&#xb8;" vert-adv-y="1428" 
d="M331 82h362v-273c-0.666992 -68 -18.667 -117.667 -54 -149c-33.333 -29.333 -87.666 -44.333 -162.999 -45h-145v87c81.333 4.66699 129.666 35.667 144.999 93h-145v287z" />
    <glyph glyph-name="onesuperior" unicode="&#xb9;" horiz-adv-x="901" vert-adv-y="1428" 
d="M638 1357l0.000976562 -811h-261v468h-210v170h12c153.333 0 236.666 57.667 249.999 173h209z" />
    <glyph glyph-name="ordmasculine" unicode="&#xba;" horiz-adv-x="804" vert-adv-y="1428" 
d="M407 1160c101.333 0 185.335 -31.667 252.002 -95c63.333 -60 95 -133.333 95 -220c0 -86 -31.667 -159.333 -95 -220c-66.667 -63.333 -152.334 -95 -257.001 -95s-190.334 31.667 -257.001 95c-63.333 60.667 -95 133.667 -95 219c0 88 31.667 161.667 95 221
c68 63.333 155.333 95 262 95zM401.002 985c-65.333 0 -98 -46.667 -98 -140s33 -140 99 -140s99 46.333 99 139c0 94 -33.333 141 -100 141z" />
    <glyph glyph-name="guillemotright" unicode="&#xbb;" horiz-adv-x="833" vert-adv-y="1428" 
d="M87 938l312 -255v-355l-312 -256v306l164 127l-164 127v306zM447 938l312 -255v-355l-312 -256v306l164 127l-164 127v306z" />
    <glyph glyph-name="onequarter" unicode="&#xbc;" horiz-adv-x="2114" vert-adv-y="1428" 
d="M638 1357l0.000976562 -811h-261v468h-210v170h12c153.333 0 236.666 57.667 249.999 173h209zM1472 1365l-605 -1365h-226l606 1365h225zM1681 174h-382v223l392 414h247v-442h120v-195h-120v-174h-257v174zM1681 369v96v32v24v30v20l-60 -63l-26 -28l-104 -111h190z
" />
    <glyph glyph-name="onehalf" unicode="&#xbd;" horiz-adv-x="2114" vert-adv-y="1428" 
d="M638 1357l0.000976562 -811h-261v468h-210v170h12c153.333 0 236.666 57.667 249.999 173h209zM1472 1365l-605 -1365h-226l606 1365h225zM2036 205l0.000976562 -205.006h-734c0 74 17.333 136.667 52 188c35.333 48.667 105.666 106.334 210.999 173.001
c74.667 47.333 123.334 80 146.001 98c32.667 26 49 54 49 84c0 24.667 -9.66699 45.334 -29 62.001c-18 14.667 -40.667 22 -68 22c-52.667 0 -88.667 -19.667 -108 -59c-8.66699 -17.333 -13.334 -53.666 -14.001 -108.999h-231c-0.666992 14.667 -1 27.334 -1 38.001
c0 106.667 33.667 188.334 101 245.001c67.333 57.333 156 86 266 86c95.333 0 174.333 -23 237 -69c69.333 -50 104 -116.333 104 -199c0 -70.667 -29 -133 -87 -187c-23.333 -21.333 -83 -61 -179 -119c-24.667 -15.333 -47.667 -31.666 -69 -48.999h354z" />
    <glyph glyph-name="threequarters" unicode="&#xbe;" horiz-adv-x="2114" vert-adv-y="1428" 
d="M369 897l-0.000976562 154.001c24 -0.666992 38.667 -1 44 -1c80.667 0 121 22.667 121 68c0 24.667 -10.667 43.667 -32 57c-18 12 -39.667 18 -65 18c-42.667 0 -73 -13.667 -91 -41c-8 -12 -12.667 -34 -14 -66h-234c2.66699 84.667 28 150.667 76 198
c60 59.333 149.333 89 268 89c94.667 0 172.334 -21.333 233.001 -64c62 -43.333 93 -100.333 93 -171c0 -59.333 -31.667 -108.333 -95 -147c83.333 -42 125 -104.333 125 -187c0 -78.667 -33.333 -144.334 -100 -197.001c-66 -51.333 -152 -77 -258 -77
c-150.667 0 -256 45.667 -316 137c-32.667 49.333 -49 111 -49 185v9h236v-13c0 -36 9.33301 -64.667 28 -86c22 -26 53.333 -39 94 -39c33.333 0 60 8.33301 80 25c18.667 16 28 36.333 28 61c0 28.667 -11.667 51 -35 67c-22.667 15.333 -51 23 -85 23
c-0.666992 0 -18 -0.666992 -52 -2zM1472 1365l-605 -1365h-225l605 1365h225zM1681 174.001h-381v223l391 414h247v-442h121v-195h-121v-174h-257v174zM1681 369.001v96v32v24v30v20l-60 -63l-26 -28l-104 -111h190z" />
    <glyph glyph-name="questiondown" unicode="&#xbf;" horiz-adv-x="1157" vert-adv-y="1428" 
d="M422 485l351.001 -0.00195312c-0.666992 -96 -9.66699 -163 -27 -201c-16 -36 -36.667 -65 -62 -87c-20 -17.333 -50.333 -35.666 -91 -54.999c-58 -28 -94.667 -50 -110 -66c-16.667 -18 -25 -41 -25 -69c0 -28.667 10.333 -51.667 31 -69c22 -18 48.667 -27 80 -27
c57.333 0 96.333 23 117 69c10 22 15.333 55 16 99h401c-8 -136.667 -50 -245.667 -126 -327c-96.667 -103.333 -233.667 -155 -411 -155c-149.333 0 -271 37 -365 111c-97.333 76.667 -146 177.334 -146 302.001c0 75.333 20.667 137.333 62 186c22 25.333 48 47 78 65
l84 48c68.667 39.333 110 71 124 95c9.33301 16.667 15.666 43.667 18.999 81zM796.001 593.998h-396v396h396v-396z" />
    <glyph glyph-name="Agrave" unicode="&#xc0;" horiz-adv-x="1379" vert-adv-y="1428" 
d="M902 188h-431l-60 -188h-425l485 1365h431l491 -1365h-432zM809 487l-120 390l-122 -390h242zM755 1751l107 -294h-286l-250 294h429z" />
    <glyph glyph-name="Aacute" unicode="&#xc1;" horiz-adv-x="1379" vert-adv-y="1428" 
d="M902 188h-431l-60 -188h-425l485 1365h431l491 -1365h-432zM809 487l-120 390l-122 -390h242zM1030 1756l-256 -304h-233l102 304h387z" />
    <glyph glyph-name="Acircumflex" unicode="&#xc2;" horiz-adv-x="1379" vert-adv-y="1428" 
d="M902 188h-431l-60 -188h-425l485 1365h431l491 -1365h-432zM809 487l-120 390l-122 -390h242zM688 1595l-86 -134h-304l223 286h323l236 -286h-303z" />
    <glyph glyph-name="Atilde" unicode="&#xc3;" horiz-adv-x="1379" vert-adv-y="1428" 
d="M902 188h-431l-60 -188h-425l485 1365h431l491 -1365h-432zM809 487l-120 390l-122 -390h242zM849 1748l197.001 0.000976562c0 -79.333 -15 -143.333 -45 -192c-20 -32.667 -48.667 -58.334 -86 -77.001c-29.333 -14 -60.333 -21 -93 -21
c-35.333 0 -74.333 8.66699 -117 26l-76 31c-16.667 6.66699 -32.334 10 -47.001 10c-30.667 0 -49.334 -20.667 -56.001 -62h-194v32c0 85.333 21 149.333 63 192c40 39.333 89.667 59 149 59c41.333 0 86 -10.667 134 -32l58 -25c23.333 -10 41.333 -15 54 -15
c36.667 0 56.334 24.667 59.001 74z" />
    <glyph glyph-name="Adieresis" unicode="&#xc4;" horiz-adv-x="1379" vert-adv-y="1428" 
d="M902 188h-431l-60 -188h-425l485 1365h431l491 -1365h-432zM809 487l-120 390l-122 -390h242zM624 1741v-276h-365v276h365zM1119 1741v-276h-365v276h365z" />
    <glyph glyph-name="Aring" unicode="&#xc5;" horiz-adv-x="1379" vert-adv-y="1428" 
d="M902 188h-431l-60 -188h-425l485 1365h431l491 -1365h-432zM809 487l-120 390l-122 -390h242zM692 1852c56 0 104.333 -20.333 145 -61c40.667 -41.333 61 -91 61 -149c0 -57.333 -20.333 -106.666 -61 -147.999c-40.667 -40.667 -90 -61 -148 -61
s-107.333 20.333 -148 61c-40.667 41.333 -61 90.666 -61 147.999c0 59.333 20.333 109 61 149c42 40.667 92.333 61 151 61zM688 1705c-16 0 -30.335 -6 -43.002 -18c-12 -12.667 -18 -27.667 -18 -45c0 -16.667 6 -31 18 -43c12.667 -12.667 27.334 -19 44.001 -19
s31.334 6.33301 44.001 19c12 12 18 26.333 18 43c0 18 -6 33 -18 45c-12.667 12 -27.667 18 -45 18z" />
    <glyph glyph-name="AE" unicode="&#xc6;" horiz-adv-x="2095" vert-adv-y="1428" 
d="M836 191h-393l-59 -191h-398l468 1365h1532v-341h-740v-166h648v-314h-648v-182h774v-362h-1184v191zM836 490v534h-137l-163 -534h300z" />
    <glyph glyph-name="Ccedilla" unicode="&#xc7;" horiz-adv-x="1445" vert-adv-y="1428" 
d="M938 -11v-180.002c-0.666992 -68 -18.667 -117.667 -54 -149c-33.333 -29.333 -87.666 -44.333 -162.999 -45h-145v87c81.333 4.66699 129.666 35.667 144.999 93h-145v199c-96 26 -181.333 71 -256 135c-80 68 -140.667 152.667 -182 254
c-39.333 95.333 -59 199 -59 311c0 200 62.667 365.333 188 496c132 137.333 297 206 495 206c218 0 387.667 -81.333 509 -244c58.667 -78 98.334 -173 119.001 -285l-407 -7c-9.33301 46 -26.333 83.667 -51 113c-45.333 54.667 -104 82 -176 82
c-80.667 0 -144.334 -33 -191.001 -99c-50.667 -70.667 -76 -159.667 -76 -267c0 -100 23.333 -186 70 -258c51.333 -80.667 119 -121 203 -121c78.667 0 138.667 32.667 180 98c19.333 31.333 33 73.333 41 126h417c-18 -199.333 -100.333 -349.666 -247 -450.999
c-64 -43.333 -135.667 -74.666 -215 -93.999z" />
    <glyph glyph-name="Egrave" unicode="&#xc8;" horiz-adv-x="1392" vert-adv-y="1428" 
d="M1284 1365v-341h-740v-166h648v-314h-648v-182h773v-362h-1183v1365h1150zM762 1751l107 -294h-286l-250 294h429z" />
    <glyph glyph-name="Eacute" unicode="&#xc9;" horiz-adv-x="1392" vert-adv-y="1428" 
d="M1284 1365v-341h-740v-166h648v-314h-648v-182h773v-362h-1183v1365h1150zM1037 1756l-256 -304h-233l102 304h387z" />
    <glyph glyph-name="Ecircumflex" unicode="&#xca;" horiz-adv-x="1392" vert-adv-y="1428" 
d="M1284 1365v-341h-740v-166h648v-314h-648v-182h773v-362h-1183v1365h1150zM695 1595l-86 -134h-304l223 286h323l236 -286h-303z" />
    <glyph glyph-name="Edieresis" unicode="&#xcb;" horiz-adv-x="1392" vert-adv-y="1428" 
d="M1284 1365v-341h-740v-166h648v-314h-648v-182h773v-362h-1183v1365h1150zM631 1741v-276h-365v276h365zM1126 1741v-276h-365v276h365z" />
    <glyph glyph-name="Igrave" unicode="&#xcc;" horiz-adv-x="699" vert-adv-y="1428" 
d="M561 1365v-1365h-423v1365h423zM415 1751l107 -294h-286l-250 294h429z" />
    <glyph glyph-name="Iacute" unicode="&#xcd;" horiz-adv-x="699" vert-adv-y="1428" 
d="M561 1365v-1365h-423v1365h423zM690 1756l-256 -304h-233l102 304h387z" />
    <glyph glyph-name="Icircumflex" unicode="&#xce;" horiz-adv-x="699" vert-adv-y="1428" 
d="M561 1365v-1365h-423v1365h423zM348 1595l-86 -134h-304l223 286h323l236 -286h-303z" />
    <glyph glyph-name="Idieresis" unicode="&#xcf;" horiz-adv-x="699" vert-adv-y="1428" 
d="M561 1365v-1365h-423v1365h423zM292 1741v-276h-329v276h329zM737 1741v-276h-329v276h329z" />
    <glyph glyph-name="Eth" unicode="&#xd0;" horiz-adv-x="1488" vert-adv-y="1428" 
d="M133 544l-71.998 0.000976562v314h72v507h563c177.333 0 310.666 -25 399.999 -75c119.333 -66.667 206 -169.334 260 -308.001c35.333 -92 53 -195 53 -309c0 -182.667 -47.333 -332.667 -142 -450c-67.333 -84 -147.333 -142.333 -240 -175
c-90.667 -32 -194.334 -48 -311.001 -48h-583v544zM543.002 544.001v-203h145c207.333 0 311 109.667 311 329c0 100.667 -24 183.667 -72 249c-51.333 70 -135 105 -251 105h-133v-166h194v-314h-194z" />
    <glyph glyph-name="Ntilde" unicode="&#xd1;" horiz-adv-x="1488" vert-adv-y="1428" 
d="M1354 0l-395.999 0.000976562l-419 724c2 -53.333 3.33301 -171 4 -353l1 -165v-206h-410v1365h400l416 -707c-2.66699 71.333 -4.33398 188.666 -5.00098 351.999l-1 137v218h410v-1365zM904.001 1748l197.001 0.000976562c0 -79.333 -15 -143.333 -45 -192
c-20 -32.667 -48.667 -58.334 -86 -77.001c-29.333 -14 -60.333 -21 -93 -21c-35.333 0 -74.333 8.66699 -117 26l-76 31c-16.667 6.66699 -32.334 10 -47.001 10c-30.667 0 -49.334 -20.667 -56.001 -62h-194v32c0 85.333 21 149.333 63 192c40 39.333 89.667 59 149 59
c41.333 0 86 -10.667 134 -32l58 -25c23.333 -10 41.333 -15 54 -15c36.667 0 56.334 24.667 59.001 74z" />
    <glyph glyph-name="Ograve" unicode="&#xd2;" horiz-adv-x="1565" vert-adv-y="1428" 
d="M792 1396c202 0 367.998 -65.998 497.998 -197.998c61.333 -62 109 -136.333 143 -223c35.333 -90.667 53 -188.334 53 -293.001c0 -210.667 -65.333 -382.334 -196 -515.001c-129.333 -132 -298.333 -198 -507 -198c-209.333 0 -378.666 66 -507.999 198
c-61.333 62 -109 136.333 -143 223c-35.333 90 -53 186.667 -53 290c0 146 33 276.333 99 391c64.667 112.667 157.334 198 278.001 256c96.667 46 208.667 69 336 69zM777.998 1055c-63.333 0 -118.669 -21.001 -166.002 -63.001c-41.333 -37.333 -71.666 -91 -90.999 -161
c-12.667 -46.667 -19 -96 -19 -148c0 -95.333 19.667 -177.666 59 -246.999c22.667 -40 54.667 -71.667 96 -95c37.333 -20.667 79.333 -31 126 -31c99.333 0 173 42 221 126c39.333 69.333 59 151 59 245c0 97.333 -19.667 180 -59 248
c-49.333 84 -124.666 126 -225.999 126zM847.995 1751l107 -294h-286l-250 294h429z" />
    <glyph glyph-name="Oacute" unicode="&#xd3;" horiz-adv-x="1565" vert-adv-y="1428" 
d="M792 1396c202 0 367.998 -65.998 497.998 -197.998c61.333 -62 109 -136.333 143 -223c35.333 -90.667 53 -188.334 53 -293.001c0 -210.667 -65.333 -382.334 -196 -515.001c-129.333 -132 -298.333 -198 -507 -198c-209.333 0 -378.666 66 -507.999 198
c-61.333 62 -109 136.333 -143 223c-35.333 90 -53 186.667 -53 290c0 146 33 276.333 99 391c64.667 112.667 157.334 198 278.001 256c96.667 46 208.667 69 336 69zM777.998 1055c-63.333 0 -118.669 -21.001 -166.002 -63.001c-41.333 -37.333 -71.666 -91 -90.999 -161
c-12.667 -46.667 -19 -96 -19 -148c0 -95.333 19.667 -177.666 59 -246.999c22.667 -40 54.667 -71.667 96 -95c37.333 -20.667 79.333 -31 126 -31c99.333 0 173 42 221 126c39.333 69.333 59 151 59 245c0 97.333 -19.667 180 -59 248
c-49.333 84 -124.666 126 -225.999 126zM1122 1756l-256 -304h-233l102 304h387z" />
    <glyph glyph-name="Ocircumflex" unicode="&#xd4;" horiz-adv-x="1565" vert-adv-y="1428" 
d="M792 1396c202 0 367.998 -65.998 497.998 -197.998c61.333 -62 109 -136.333 143 -223c35.333 -90.667 53 -188.334 53 -293.001c0 -210.667 -65.333 -382.334 -196 -515.001c-129.333 -132 -298.333 -198 -507 -198c-209.333 0 -378.666 66 -507.999 198
c-61.333 62 -109 136.333 -143 223c-35.333 90 -53 186.667 -53 290c0 146 33 276.333 99 391c64.667 112.667 157.334 198 278.001 256c96.667 46 208.667 69 336 69zM777.998 1055c-63.333 0 -118.669 -21.001 -166.002 -63.001c-41.333 -37.333 -71.666 -91 -90.999 -161
c-12.667 -46.667 -19 -96 -19 -148c0 -95.333 19.667 -177.666 59 -246.999c22.667 -40 54.667 -71.667 96 -95c37.333 -20.667 79.333 -31 126 -31c99.333 0 173 42 221 126c39.333 69.333 59 151 59 245c0 97.333 -19.667 180 -59 248
c-49.333 84 -124.666 126 -225.999 126zM780.995 1595l-86 -134h-304l223 286h323l236 -286h-303z" />
    <glyph glyph-name="Otilde" unicode="&#xd5;" horiz-adv-x="1565" vert-adv-y="1428" 
d="M792 1396c202 0 367.998 -65.998 497.998 -197.998c61.333 -62 109 -136.333 143 -223c35.333 -90.667 53 -188.334 53 -293.001c0 -210.667 -65.333 -382.334 -196 -515.001c-129.333 -132 -298.333 -198 -507 -198c-209.333 0 -378.666 66 -507.999 198
c-61.333 62 -109 136.333 -143 223c-35.333 90 -53 186.667 -53 290c0 146 33 276.333 99 391c64.667 112.667 157.334 198 278.001 256c96.667 46 208.667 69 336 69zM777.998 1055c-63.333 0 -118.669 -21.001 -166.002 -63.001c-41.333 -37.333 -71.666 -91 -90.999 -161
c-12.667 -46.667 -19 -96 -19 -148c0 -95.333 19.667 -177.666 59 -246.999c22.667 -40 54.667 -71.667 96 -95c37.333 -20.667 79.333 -31 126 -31c99.333 0 173 42 221 126c39.333 69.333 59 151 59 245c0 97.333 -19.667 180 -59 248
c-49.333 84 -124.666 126 -225.999 126zM941.995 1748l197.001 0.000976562c0 -79.333 -15 -143.333 -45 -192c-20 -32.667 -48.667 -58.334 -86 -77.001c-29.333 -14 -60.333 -21 -93 -21c-35.333 0 -74.333 8.66699 -117 26l-76 31c-16.667 6.66699 -32.334 10 -47.001 10
c-30.667 0 -49.334 -20.667 -56.001 -62h-194v32c0 85.333 21 149.333 63 192c40 39.333 89.667 59 149 59c41.333 0 86 -10.667 134 -32l58 -25c23.333 -10 41.333 -15 54 -15c36.667 0 56.334 24.667 59.001 74z" />
    <glyph glyph-name="Odieresis" unicode="&#xd6;" horiz-adv-x="1565" vert-adv-y="1428" 
d="M792 1396c202 0 367.998 -65.998 497.998 -197.998c61.333 -62 109 -136.333 143 -223c35.333 -90.667 53 -188.334 53 -293.001c0 -210.667 -65.333 -382.334 -196 -515.001c-129.333 -132 -298.333 -198 -507 -198c-209.333 0 -378.666 66 -507.999 198
c-61.333 62 -109 136.333 -143 223c-35.333 90 -53 186.667 -53 290c0 146 33 276.333 99 391c64.667 112.667 157.334 198 278.001 256c96.667 46 208.667 69 336 69zM777.998 1055c-63.333 0 -118.669 -21.001 -166.002 -63.001c-41.333 -37.333 -71.666 -91 -90.999 -161
c-12.667 -46.667 -19 -96 -19 -148c0 -95.333 19.667 -177.666 59 -246.999c22.667 -40 54.667 -71.667 96 -95c37.333 -20.667 79.333 -31 126 -31c99.333 0 173 42 221 126c39.333 69.333 59 151 59 245c0 97.333 -19.667 180 -59 248
c-49.333 84 -124.666 126 -225.999 126zM716.995 1741v-276h-365v276h365zM1212 1741v-276h-365v276h365z" />
    <glyph glyph-name="multiply" unicode="&#xd7;" vert-adv-y="1428" 
d="M220 1186l289 -292l295 298l139 -139l-298 -295l295 -292l-134 -134l-292 295l-295 -299l-139 139l298 296l-292 290z" />
    <glyph glyph-name="Oslash" unicode="&#xd8;" horiz-adv-x="1565" vert-adv-y="1428" 
d="M365 91l-167.001 -182.001l-144 135l169 182c-96 128 -144 280.333 -144 457c0 210.667 65.333 382.334 196 515.001c129.333 132 298.333 198 507 198c156.667 0 294.334 -39.667 413.001 -119l174 188l141 -130l-174 -189c99.333 -124.667 149 -279.667 149 -465
c0 -143.333 -33 -272.333 -99 -387c-66 -114 -158.667 -199.333 -278 -256c-96.667 -46 -204.667 -69 -324 -69c-165.333 0 -305 40.667 -419 122zM618.999 366.999c47.333 -38 102.002 -57.002 164.002 -57.002c65.333 0 121.666 21 168.999 63
c41.333 36.667 71.666 90.334 90.999 161.001c12.667 46.667 19 95.334 19 146.001c0 50 -6 99.667 -18 149zM518.001 544.997l422 456c-46 36 -98.667 54 -158 54c-100 0 -173.667 -42 -221 -126c-39.333 -70 -59 -152.333 -59 -247c0 -42.667 5 -86 15 -130z" />
    <glyph glyph-name="Ugrave" unicode="&#xd9;" horiz-adv-x="1503" vert-adv-y="1428" 
d="M959 1365h409.996v-881c0 -122 -22 -216.333 -66 -283c-57.333 -86.667 -143.666 -149.667 -258.999 -189c-83.333 -28.667 -180.666 -43 -291.999 -43c-195.333 0 -349.666 45.333 -462.999 136c-62.667 50 -105 108.333 -127 175c-18.667 55.333 -28 123.333 -28 204
v881h410v-842c0 -71.333 17.667 -123.666 53 -156.999c38.667 -37.333 90 -56 154 -56c64.667 0 116.334 18.667 155.001 56c35.333 33.333 53 85.666 53 156.999v842zM816.996 1751l107 -294h-286l-250 294h429z" />
    <glyph glyph-name="Uacute" unicode="&#xda;" horiz-adv-x="1503" vert-adv-y="1428" 
d="M959 1365h409.996v-881c0 -122 -22 -216.333 -66 -283c-57.333 -86.667 -143.666 -149.667 -258.999 -189c-83.333 -28.667 -180.666 -43 -291.999 -43c-195.333 0 -349.666 45.333 -462.999 136c-62.667 50 -105 108.333 -127 175c-18.667 55.333 -28 123.333 -28 204
v881h410v-842c0 -71.333 17.667 -123.666 53 -156.999c38.667 -37.333 90 -56 154 -56c64.667 0 116.334 18.667 155.001 56c35.333 33.333 53 85.666 53 156.999v842zM1092 1756l-256 -304h-233l102 304h387z" />
    <glyph glyph-name="Ucircumflex" unicode="&#xdb;" horiz-adv-x="1503" vert-adv-y="1428" 
d="M959 1365h409.996v-881c0 -122 -22 -216.333 -66 -283c-57.333 -86.667 -143.666 -149.667 -258.999 -189c-83.333 -28.667 -180.666 -43 -291.999 -43c-195.333 0 -349.666 45.333 -462.999 136c-62.667 50 -105 108.333 -127 175c-18.667 55.333 -28 123.333 -28 204
v881h410v-842c0 -71.333 17.667 -123.666 53 -156.999c38.667 -37.333 90 -56 154 -56c64.667 0 116.334 18.667 155.001 56c35.333 33.333 53 85.666 53 156.999v842zM750.996 1595l-86 -134h-304l223 286h323l236 -286h-303z" />
    <glyph glyph-name="Udieresis" unicode="&#xdc;" horiz-adv-x="1503" vert-adv-y="1428" 
d="M959 1365h409.996v-881c0 -122 -22 -216.333 -66 -283c-57.333 -86.667 -143.666 -149.667 -258.999 -189c-83.333 -28.667 -180.666 -43 -291.999 -43c-195.333 0 -349.666 45.333 -462.999 136c-62.667 50 -105 108.333 -127 175c-18.667 55.333 -28 123.333 -28 204
v881h410v-842c0 -71.333 17.667 -123.666 53 -156.999c38.667 -37.333 90 -56 154 -56c64.667 0 116.334 18.667 155.001 56c35.333 33.333 53 85.666 53 156.999v842zM686.996 1741v-276h-365v276h365zM1182 1741v-276h-365v276h365z" />
    <glyph glyph-name="Yacute" unicode="&#xdd;" horiz-adv-x="1290" vert-adv-y="1428" 
d="M856 502v-502h-410v502l-484 863h451l234 -483l234 483h448zM985 1756l-256 -304h-233l102 304h387z" />
    <glyph glyph-name="Thorn" unicode="&#xde;" horiz-adv-x="1368" vert-adv-y="1428" 
d="M544 248l0.000976562 -248h-410v1365h410v-164h244c128.667 0 227.667 -18.333 297 -55c87.333 -46 152 -115 194 -207c29.333 -65.333 44 -138.333 44 -219c0 -156 -53 -278 -159 -366c-54 -44.667 -112.333 -73.667 -175 -87
c-56.667 -12.667 -120.334 -19 -191.001 -19h-254zM544.001 583l200 0.000976562c56 0 98 12 126 36c29.333 25.333 44 59.666 44 102.999c0 42.667 -14.667 76.667 -44 102c-27.333 24 -69.333 36 -126 36h-200v-277z" />
    <glyph glyph-name="germandbls" unicode="&#xdf;" horiz-adv-x="1260" vert-adv-y="1428" 
d="M571 631l0.00195312 222c13.333 -3.33301 27.333 -5 42 -5c42.667 0 76 9.33301 100 28c29.333 22.667 44 55 44 97c0 38.667 -13.667 69 -41 91c-24 19.333 -54 29 -90 29c-88.667 0 -133 -46.333 -133 -139v-954h-382v818c0 140.667 12.667 241 38 301
c39.333 93.333 110.666 164 213.999 212c79.333 36.667 168.333 55 267 55c142 0 260.667 -35.667 356 -107c88.667 -66 133 -155 133 -267c0 -102.667 -46.667 -188.667 -140 -258c144.667 -65.333 217 -180.333 217 -345c0 -131.333 -45.333 -238 -136 -320
c-80.667 -73.333 -179.334 -110 -296.001 -110c-48.667 0 -109.334 7 -182.001 21v286c22 -5.33301 40.667 -8 56 -8c48.667 0 89.334 15.333 122.001 46c36 34 54 79.667 54 137c0 54.667 -17 98 -51 130c-32 30 -77.333 45 -136 45c-15.333 0 -34 -1.66699 -56 -5z" />
    <glyph glyph-name="agrave" unicode="&#xe0;" horiz-adv-x="1239" vert-adv-y="1428" 
d="M477 633h-351.001c10 110 43.667 194 101 252c88 88.667 223 133 405 133c154 0 276.667 -33.667 368 -101c85.333 -62.667 128 -164.334 128 -305.001v-464c0 -32 2 -59 6 -81c3.33301 -21.333 11.666 -43.666 24.999 -66.999h-370
c-15.333 30 -26.666 63.333 -33.999 100c-48 -36 -85.667 -61.333 -113 -76c-66 -34 -138 -51 -216 -51c-97.333 0 -179.333 26 -246 78c-66 50 -99 120.667 -99 212c0 79.333 22.667 144.333 68 195c42.667 46.667 112.334 79.667 209.001 99l287 55
c71.333 14 107 39.333 107 76c0 26.667 -12.667 47.667 -38 63c-24.667 14 -55 21 -91 21c-62 0 -105.333 -19 -130 -57c-11.333 -18 -17 -39.667 -17 -65c0 -3.33301 0.333008 -9 1 -17zM758.999 444l-164 -56c-59.333 -19.333 -96 -33.333 -110 -42
c-25.333 -14.667 -38 -35.667 -38 -63c0 -26.667 11 -48 33 -64c19.333 -14 44.333 -21 75 -21c62.667 0 114.667 21 156 63c32 32 48 75.333 48 130v53zM684.999 1365l107 -294h-286l-250 294h429z" />
    <glyph glyph-name="aacute" unicode="&#xe1;" horiz-adv-x="1239" vert-adv-y="1428" 
d="M477 633h-351.001c10 110 43.667 194 101 252c88 88.667 223 133 405 133c154 0 276.667 -33.667 368 -101c85.333 -62.667 128 -164.334 128 -305.001v-464c0 -32 2 -59 6 -81c3.33301 -21.333 11.666 -43.666 24.999 -66.999h-370
c-15.333 30 -26.666 63.333 -33.999 100c-48 -36 -85.667 -61.333 -113 -76c-66 -34 -138 -51 -216 -51c-97.333 0 -179.333 26 -246 78c-66 50 -99 120.667 -99 212c0 79.333 22.667 144.333 68 195c42.667 46.667 112.334 79.667 209.001 99l287 55
c71.333 14 107 39.333 107 76c0 26.667 -12.667 47.667 -38 63c-24.667 14 -55 21 -91 21c-62 0 -105.333 -19 -130 -57c-11.333 -18 -17 -39.667 -17 -65c0 -3.33301 0.333008 -9 1 -17zM758.999 444l-164 -56c-59.333 -19.333 -96 -33.333 -110 -42
c-25.333 -14.667 -38 -35.667 -38 -63c0 -26.667 11 -48 33 -64c19.333 -14 44.333 -21 75 -21c62.667 0 114.667 21 156 63c32 32 48 75.333 48 130v53zM567.999 1365h429l-249 -294h-287z" />
    <glyph glyph-name="acircumflex" unicode="&#xe2;" horiz-adv-x="1239" vert-adv-y="1428" 
d="M477 633h-351.001c10 110 43.667 194 101 252c88 88.667 223 133 405 133c154 0 276.667 -33.667 368 -101c85.333 -62.667 128 -164.334 128 -305.001v-464c0 -32 2 -59 6 -81c3.33301 -21.333 11.666 -43.666 24.999 -66.999h-370
c-15.333 30 -26.666 63.333 -33.999 100c-48 -36 -85.667 -61.333 -113 -76c-66 -34 -138 -51 -216 -51c-97.333 0 -179.333 26 -246 78c-66 50 -99 120.667 -99 212c0 79.333 22.667 144.333 68 195c42.667 46.667 112.334 79.667 209.001 99l287 55
c71.333 14 107 39.333 107 76c0 26.667 -12.667 47.667 -38 63c-24.667 14 -55 21 -91 21c-62 0 -105.333 -19 -130 -57c-11.333 -18 -17 -39.667 -17 -65c0 -3.33301 0.333008 -9 1 -17zM758.999 444l-164 -56c-59.333 -19.333 -96 -33.333 -110 -42
c-25.333 -14.667 -38 -35.667 -38 -63c0 -26.667 11 -48 33 -64c19.333 -14 44.333 -21 75 -21c62.667 0 114.667 21 156 63c32 32 48 75.333 48 130v53zM779.999 1365l214 -294h-294l-81 135l-81 -135h-293l217 294h318z" />
    <glyph glyph-name="atilde" unicode="&#xe3;" horiz-adv-x="1239" vert-adv-y="1428" 
d="M477 633h-351.001c10 110 43.667 194 101 252c88 88.667 223 133 405 133c154 0 276.667 -33.667 368 -101c85.333 -62.667 128 -164.334 128 -305.001v-464c0 -32 2 -59 6 -81c3.33301 -21.333 11.666 -43.666 24.999 -66.999h-370
c-15.333 30 -26.666 63.333 -33.999 100c-48 -36 -85.667 -61.333 -113 -76c-66 -34 -138 -51 -216 -51c-97.333 0 -179.333 26 -246 78c-66 50 -99 120.667 -99 212c0 79.333 22.667 144.333 68 195c42.667 46.667 112.334 79.667 209.001 99l287 55
c71.333 14 107 39.333 107 76c0 26.667 -12.667 47.667 -38 63c-24.667 14 -55 21 -91 21c-62 0 -105.333 -19 -130 -57c-11.333 -18 -17 -39.667 -17 -65c0 -3.33301 0.333008 -9 1 -17zM758.999 444l-164 -56c-59.333 -19.333 -96 -33.333 -110 -42
c-25.333 -14.667 -38 -35.667 -38 -63c0 -26.667 11 -48 33 -64c19.333 -14 44.333 -21 75 -21c62.667 0 114.667 21 156 63c32 32 48 75.333 48 130v53zM777.999 1354l194.001 0.000976562c0 -80.667 -14.667 -146 -44 -196c-20 -33.333 -48.667 -59.333 -86 -78
c-28.667 -14.667 -59.334 -22 -92.001 -22c-34 0 -72 8.66699 -114 26l-75 32c-16 6.66699 -31.667 10 -47 10c-30.667 0 -49.334 -21 -56.001 -63h-191v27c0 83.333 17.667 146.666 53 189.999c38.667 48 91.334 72 158.001 72c38.667 0 82.334 -10.667 131.001 -32l57 -26
c22 -10 40 -15 54 -15c35.333 0 54.666 25 57.999 75z" />
    <glyph glyph-name="adieresis" unicode="&#xe4;" horiz-adv-x="1239" vert-adv-y="1428" 
d="M477 633h-351.001c10 110 43.667 194 101 252c88 88.667 223 133 405 133c154 0 276.667 -33.667 368 -101c85.333 -62.667 128 -164.334 128 -305.001v-464c0 -32 2 -59 6 -81c3.33301 -21.333 11.666 -43.666 24.999 -66.999h-370
c-15.333 30 -26.666 63.333 -33.999 100c-48 -36 -85.667 -61.333 -113 -76c-66 -34 -138 -51 -216 -51c-97.333 0 -179.333 26 -246 78c-66 50 -99 120.667 -99 212c0 79.333 22.667 144.333 68 195c42.667 46.667 112.334 79.667 209.001 99l287 55
c71.333 14 107 39.333 107 76c0 26.667 -12.667 47.667 -38 63c-24.667 14 -55 21 -91 21c-62 0 -105.333 -19 -130 -57c-11.333 -18 -17 -39.667 -17 -65c0 -3.33301 0.333008 -9 1 -17zM758.999 444l-164 -56c-59.333 -19.333 -96 -33.333 -110 -42
c-25.333 -14.667 -38 -35.667 -38 -63c0 -26.667 11 -48 33 -64c19.333 -14 44.333 -21 75 -21c62.667 0 114.667 21 156 63c32 32 48 75.333 48 130v53zM552.999 1365v-294h-352v294h352zM1037 1365v-294h-352v294h352z" />
    <glyph glyph-name="aring" unicode="&#xe5;" horiz-adv-x="1239" vert-adv-y="1428" 
d="M477 633h-351.001c10 110 43.667 194 101 252c88 88.667 223 133 405 133c154 0 276.667 -33.667 368 -101c85.333 -62.667 128 -164.334 128 -305.001v-464c0 -32 2 -59 6 -81c3.33301 -21.333 11.666 -43.666 24.999 -66.999h-370
c-15.333 30 -26.666 63.333 -33.999 100c-48 -36 -85.667 -61.333 -113 -76c-66 -34 -138 -51 -216 -51c-97.333 0 -179.333 26 -246 78c-66 50 -99 120.667 -99 212c0 79.333 22.667 144.333 68 195c42.667 46.667 112.334 79.667 209.001 99l287 55
c71.333 14 107 39.333 107 76c0 26.667 -12.667 47.667 -38 63c-24.667 14 -55 21 -91 21c-62 0 -105.333 -19 -130 -57c-11.333 -18 -17 -39.667 -17 -65c0 -3.33301 0.333008 -9 1 -17zM758.999 444l-164 -56c-59.333 -19.333 -96 -33.333 -110 -42
c-25.333 -14.667 -38 -35.667 -38 -63c0 -26.667 11 -48 33 -64c19.333 -14 44.333 -21 75 -21c62.667 0 114.667 21 156 63c32 32 48 75.333 48 130v53zM622.999 1526c57.333 0 107.333 -21 150 -63c42 -42 63 -93 63 -153c0 -59.333 -21 -110 -63 -152
c-42.667 -42.667 -93.667 -64 -153 -64s-110.333 21.333 -153 64c-42 42 -63 92.667 -63 152c0 60.667 21 111.667 63 153c43.333 42 95.333 63 156 63zM618.999 1386c-20 0 -37.334 -7.33301 -52.001 -22c-14.667 -15.333 -22 -33 -22 -53
c0 -20.667 7.33301 -38.667 22 -54c15.333 -14.667 33 -22 53 -22c20.667 0 38.334 7.33301 53.001 22c14.667 15.333 22 33 22 53c0 21.333 -7.33301 39.333 -22 54c-15.333 14.667 -33.333 22 -54 22z" />
    <glyph glyph-name="ae" unicode="&#xe6;" horiz-adv-x="1932" vert-adv-y="1428" 
d="M988 926c94.667 60.667 204.002 91.001 328.002 91.001c176 0 315.333 -59 418 -177c88.667 -102 133 -234.333 133 -397c0 -8.66699 -0.333008 -21.667 -1 -39h-727c6 -44 22.667 -80 50 -108c38.667 -38.667 88 -58 148 -58c65.333 0 112 22.667 140 68h372
c-18.667 -78 -64.334 -146.333 -137.001 -205c-106 -86 -234.667 -129 -386 -129c-192.667 0 -343 64.333 -451 193c-30.667 -29.333 -61.334 -56 -92.001 -80c-94 -74.667 -200.667 -112 -320 -112c-104.667 0 -195 26 -271 78c-73.333 49.333 -110 120.666 -110 213.999
c0 78 22.667 142.333 68 193c42.667 46.667 112.334 79.667 209.001 99l287 56c71.333 14 107 39 107 75c0 26.667 -12.667 47.667 -38 63c-24.667 14 -55 21 -91 21c-62 0 -105.333 -19 -130 -57c-11.333 -18 -17 -39.667 -17 -65c0 -3.33301 0.333008 -9 1 -17h-351
c10 110 43.667 194 101 252c88 88.667 223 133 405 133c147.333 0 265.666 -30.667 354.999 -92zM760.002 444.001l-164 -56c-59.333 -19.333 -96 -33.333 -110 -42c-25.333 -14.667 -38 -35.667 -38 -63c0 -26.667 11 -48 33 -64c18.667 -14 43.667 -21 75 -21
c62.667 0 114.667 21 156 63c32 32 48 75.333 48 130v53zM1482 609.001c-4 37.333 -15.332 68 -33.999 92c-32.667 42 -78 63 -136 63c-58.667 0 -104.334 -21 -137.001 -63c-18.667 -24 -30 -54.667 -34 -92h341z" />
    <glyph glyph-name="ccedilla" unicode="&#xe7;" horiz-adv-x="1199" vert-adv-y="1428" 
d="M796 -5l-0.000976562 -185.996c0.666992 -130.667 -71.666 -195.334 -216.999 -194.001h-145v87c80.667 4.66699 129 35.667 145 93h-145v200c-56 15.333 -105.667 37.333 -149 66c-72 47.333 -127.333 110.666 -166 189.999c-35.333 73.333 -53 154.666 -53 243.999
c0 154 51.333 279.333 154 376c102.667 97.333 235 146 397 146c110.667 0 209 -23.667 295 -71c133.333 -73.333 207 -185.333 221 -336h-371c-18.667 89.333 -68.334 134 -149.001 134c-51.333 0 -90.666 -19 -117.999 -57c-35.333 -46.667 -53 -109.667 -53 -189
c0 -65.333 12 -122 36 -170c28 -54.667 72.667 -82 134 -82c56.667 0 99.667 23.333 129 70c17.333 27.333 28.333 61.666 33 102.999h367c-16 -222.667 -131 -364 -345 -424z" />
    <glyph glyph-name="egrave" unicode="&#xe8;" horiz-adv-x="1238" vert-adv-y="1428" 
d="M1172 404l-726.998 -0.00195312c6 -44 22.667 -80 50 -108c38.667 -38.667 88 -58 148 -58c65.333 0 112 22.667 140 68h372c-18.667 -78 -64.334 -146.333 -137.001 -205c-106 -86 -234.667 -129 -386 -129c-170 0 -306.667 49 -410 147
c-48.667 46.667 -86.667 103.334 -114 170.001c-28 66.667 -42 136.334 -42 209.001c0 152.667 55 278.667 165 378c103.333 94 233.666 141 390.999 141c176 0 315.333 -59 418 -177c88.667 -102 133 -234.333 133 -397c0 -8.66699 -0.333008 -21.667 -1 -39z
M788.002 608.998c-4 37.333 -15.332 68 -33.999 92c-32.667 42 -78 63 -136 63c-58.667 0 -104.334 -21 -137.001 -63c-18.667 -24 -30 -54.667 -34 -92h341zM685.003 1365l107 -294h-286l-250 294h429z" />
    <glyph glyph-name="eacute" unicode="&#xe9;" horiz-adv-x="1238" vert-adv-y="1428" 
d="M1172 404l-726.998 -0.00195312c6 -44 22.667 -80 50 -108c38.667 -38.667 88 -58 148 -58c65.333 0 112 22.667 140 68h372c-18.667 -78 -64.334 -146.333 -137.001 -205c-106 -86 -234.667 -129 -386 -129c-170 0 -306.667 49 -410 147
c-48.667 46.667 -86.667 103.334 -114 170.001c-28 66.667 -42 136.334 -42 209.001c0 152.667 55 278.667 165 378c103.333 94 233.666 141 390.999 141c176 0 315.333 -59 418 -177c88.667 -102 133 -234.333 133 -397c0 -8.66699 -0.333008 -21.667 -1 -39z
M788.002 608.998c-4 37.333 -15.332 68 -33.999 92c-32.667 42 -78 63 -136 63c-58.667 0 -104.334 -21 -137.001 -63c-18.667 -24 -30 -54.667 -34 -92h341zM568.003 1365h429l-249 -294h-287z" />
    <glyph glyph-name="ecircumflex" unicode="&#xea;" horiz-adv-x="1238" vert-adv-y="1428" 
d="M1172 404l-726.998 -0.00195312c6 -44 22.667 -80 50 -108c38.667 -38.667 88 -58 148 -58c65.333 0 112 22.667 140 68h372c-18.667 -78 -64.334 -146.333 -137.001 -205c-106 -86 -234.667 -129 -386 -129c-170 0 -306.667 49 -410 147
c-48.667 46.667 -86.667 103.334 -114 170.001c-28 66.667 -42 136.334 -42 209.001c0 152.667 55 278.667 165 378c103.333 94 233.666 141 390.999 141c176 0 315.333 -59 418 -177c88.667 -102 133 -234.333 133 -397c0 -8.66699 -0.333008 -21.667 -1 -39z
M788.002 608.998c-4 37.333 -15.332 68 -33.999 92c-32.667 42 -78 63 -136 63c-58.667 0 -104.334 -21 -137.001 -63c-18.667 -24 -30 -54.667 -34 -92h341zM780.003 1365l214 -294h-294l-81 135l-81 -135h-293l217 294h318z" />
    <glyph glyph-name="edieresis" unicode="&#xeb;" horiz-adv-x="1238" vert-adv-y="1428" 
d="M1172 404l-726.998 -0.00195312c6 -44 22.667 -80 50 -108c38.667 -38.667 88 -58 148 -58c65.333 0 112 22.667 140 68h372c-18.667 -78 -64.334 -146.333 -137.001 -205c-106 -86 -234.667 -129 -386 -129c-170 0 -306.667 49 -410 147
c-48.667 46.667 -86.667 103.334 -114 170.001c-28 66.667 -42 136.334 -42 209.001c0 152.667 55 278.667 165 378c103.333 94 233.666 141 390.999 141c176 0 315.333 -59 418 -177c88.667 -102 133 -234.333 133 -397c0 -8.66699 -0.333008 -21.667 -1 -39z
M788.002 608.998c-4 37.333 -15.332 68 -33.999 92c-32.667 42 -78 63 -136 63c-58.667 0 -104.334 -21 -137.001 -63c-18.667 -24 -30 -54.667 -34 -92h341zM553.003 1365v-294h-352v294h352zM1037 1365v-294h-352v294h352z" />
    <glyph glyph-name="igrave" unicode="&#xec;" horiz-adv-x="603" vert-adv-y="1428" 
d="M493 990v-990h-382v990h382zM367 1365l107 -294h-286l-250 294h429z" />
    <glyph glyph-name="iacute" unicode="&#xed;" horiz-adv-x="603" vert-adv-y="1428" 
d="M493 990v-990h-382v990h382zM250 1365h429l-249 -294h-287z" />
    <glyph glyph-name="icircumflex" unicode="&#xee;" horiz-adv-x="603" vert-adv-y="1428" 
d="M492 990v-990h-382v990h382zM462 1365l214 -294h-294l-81 135l-81 -135h-293l217 294h318z" />
    <glyph glyph-name="idieresis" unicode="&#xef;" horiz-adv-x="603" vert-adv-y="1428" 
d="M492 990v-990h-382v990h382zM241 1365v-294h-316v294h316zM678 1365v-294h-316v294h316z" />
    <glyph glyph-name="eth" unicode="&#xf0;" horiz-adv-x="1241" vert-adv-y="1428" 
d="M516 1440l91.0039 135.998l114 -76l-85 -129c83.333 -53.333 161.666 -117.333 234.999 -192c90.667 -92 163 -194.667 217 -308c58.667 -126 88 -250.333 88 -373c0 -95.333 -24.667 -185 -74 -269c-54.667 -91.333 -132.334 -159.333 -233.001 -204
c-78 -34.667 -162 -52 -252 -52c-149.333 0 -276 44.333 -380 133c-114 96.667 -171 226.334 -171 389.001c0 154 50.333 280.333 151 379c46 45.333 100.333 81 163 107c58 24.667 115.333 37 172 37c63.333 0 127.666 -23 192.999 -69c-56 86 -133.333 165.667 -232 239
l-87 -132l-115 77l87 130c-8.66699 4.66699 -30.334 17.334 -65.001 38.001l99 176c34 -14 62 -26.333 84 -37zM619.004 744.998c-52.667 0 -94 -19.999 -124 -59.999c-31.333 -42.667 -47 -106 -47 -190c0 -82.667 15.667 -145.334 47 -188.001
c29.333 -40.667 71.333 -61 126 -61s96.667 20.333 126 61c31.333 42.667 47 105 47 187c0 167.333 -58.333 251 -175 251z" />
    <glyph glyph-name="ntilde" unicode="&#xf1;" horiz-adv-x="1247" vert-adv-y="1428" 
d="M111 990h362v-116c77.333 96 175.333 144 294 144c107.333 0 195 -32.667 263 -98c71.333 -69.333 107 -171.333 107 -306v-614h-382v540c0 102.667 -43.333 154 -130 154c-88 0 -132 -51.333 -132 -154v-540h-382v990zM782 1354l194.001 0.000976562
c0 -80.667 -14.667 -146 -44 -196c-20 -33.333 -48.667 -59.333 -86 -78c-28.667 -14.667 -59.334 -22 -92.001 -22c-34 0 -72 8.66699 -114 26l-75 32c-16 6.66699 -31.667 10 -47 10c-30.667 0 -49.334 -21 -56.001 -63h-191v27c0 83.333 17.667 146.666 53 189.999
c38.667 48 91.334 72 158.001 72c38.667 0 82.334 -10.667 131.001 -32l57 -26c22 -10 40 -15 54 -15c35.333 0 54.666 25 57.999 75z" />
    <glyph glyph-name="ograve" unicode="&#xf2;" horiz-adv-x="1239" vert-adv-y="1428" 
d="M628 1017c160.667 0 293.667 -53 399 -159c98.667 -98.667 148 -219.667 148 -363c0 -142.667 -49.333 -263.667 -148 -363c-105.333 -106 -240.666 -159 -405.999 -159c-166.667 0 -302.334 53 -407.001 159c-98.667 99.333 -148 220 -148 362
c0 94 23.333 181.667 70 263c49.333 86 121 152.333 215 199c80.667 40.667 173 61 277 61zM618 744c-52 0 -93 -20.333 -123 -61c-31.333 -41.333 -47 -104 -47 -188s15.667 -146.667 47 -188c30 -40.667 71.667 -61 125 -61c54.667 0 96.667 20.333 126 61
c31.333 42 47 104 47 186c0 167.333 -58.333 251 -175 251zM685 1365l107 -294h-286l-250 294h429z" />
    <glyph glyph-name="oacute" unicode="&#xf3;" horiz-adv-x="1239" vert-adv-y="1428" 
d="M628 1017c160.667 0 293.667 -53 399 -159c98.667 -98.667 148 -219.667 148 -363c0 -142.667 -49.333 -263.667 -148 -363c-105.333 -106 -240.666 -159 -405.999 -159c-166.667 0 -302.334 53 -407.001 159c-98.667 99.333 -148 220 -148 362
c0 94 23.333 181.667 70 263c49.333 86 121 152.333 215 199c80.667 40.667 173 61 277 61zM618 744c-52 0 -93 -20.333 -123 -61c-31.333 -41.333 -47 -104 -47 -188s15.667 -146.667 47 -188c30 -40.667 71.667 -61 125 -61c54.667 0 96.667 20.333 126 61
c31.333 42 47 104 47 186c0 167.333 -58.333 251 -175 251zM568 1365h429l-249 -294h-287z" />
    <glyph glyph-name="ocircumflex" unicode="&#xf4;" horiz-adv-x="1239" vert-adv-y="1428" 
d="M628 1017c160.667 0 293.667 -53 399 -159c98.667 -98.667 148 -219.667 148 -363c0 -142.667 -49.333 -263.667 -148 -363c-105.333 -106 -240.666 -159 -405.999 -159c-166.667 0 -302.334 53 -407.001 159c-98.667 99.333 -148 220 -148 362
c0 94 23.333 181.667 70 263c49.333 86 121 152.333 215 199c80.667 40.667 173 61 277 61zM618 744c-52 0 -93 -20.333 -123 -61c-31.333 -41.333 -47 -104 -47 -188s15.667 -146.667 47 -188c30 -40.667 71.667 -61 125 -61c54.667 0 96.667 20.333 126 61
c31.333 42 47 104 47 186c0 167.333 -58.333 251 -175 251zM781 1365l214 -294h-294l-81 135l-81 -135h-293l217 294h318z" />
    <glyph glyph-name="otilde" unicode="&#xf5;" horiz-adv-x="1239" vert-adv-y="1428" 
d="M628 1017c160.667 0 293.667 -53 399 -159c98.667 -98.667 148 -219.667 148 -363c0 -142.667 -49.333 -263.667 -148 -363c-105.333 -106 -240.666 -159 -405.999 -159c-166.667 0 -302.334 53 -407.001 159c-98.667 99.333 -148 220 -148 362
c0 94 23.333 181.667 70 263c49.333 86 121 152.333 215 199c80.667 40.667 173 61 277 61zM618 744c-52 0 -93 -20.333 -123 -61c-31.333 -41.333 -47 -104 -47 -188s15.667 -146.667 47 -188c30 -40.667 71.667 -61 125 -61c54.667 0 96.667 20.333 126 61
c31.333 42 47 104 47 186c0 167.333 -58.333 251 -175 251zM778 1354l194.001 0.000976562c0 -80.667 -14.667 -146 -44 -196c-20 -33.333 -48.667 -59.333 -86 -78c-28.667 -14.667 -59.334 -22 -92.001 -22c-34 0 -72 8.66699 -114 26l-75 32
c-16 6.66699 -31.667 10 -47 10c-30.667 0 -49.334 -21 -56.001 -63h-191v27c0 83.333 17.667 146.666 53 189.999c38.667 48 91.334 72 158.001 72c38.667 0 82.334 -10.667 131.001 -32l57 -26c22 -10 40 -15 54 -15c35.333 0 54.666 25 57.999 75z" />
    <glyph glyph-name="odieresis" unicode="&#xf6;" horiz-adv-x="1239" vert-adv-y="1428" 
d="M628 1017c160.667 0 293.667 -53 399 -159c98.667 -98.667 148 -219.667 148 -363c0 -142.667 -49.333 -263.667 -148 -363c-105.333 -106 -240.666 -159 -405.999 -159c-166.667 0 -302.334 53 -407.001 159c-98.667 99.333 -148 220 -148 362
c0 94 23.333 181.667 70 263c49.333 86 121 152.333 215 199c80.667 40.667 173 61 277 61zM618 744c-52 0 -93 -20.333 -123 -61c-31.333 -41.333 -47 -104 -47 -188s15.667 -146.667 47 -188c30 -40.667 71.667 -61 125 -61c54.667 0 96.667 20.333 126 61
c31.333 42 47 104 47 186c0 167.333 -58.333 251 -175 251zM554 1365v-294h-352v294h352zM1038 1365v-294h-352v294h352z" />
    <glyph glyph-name="divide" unicode="&#xf7;" vert-adv-y="1428" 
d="M2 854h1021v-189h-1021v189zM515 1234c36 0 67.335 -13.001 94.002 -39.001c28 -26.667 42 -59.667 42 -99s-14.333 -72.666 -43 -99.999c-26.667 -25.333 -58.334 -38 -95.001 -38s-68.334 12.667 -95.001 38c-28.667 28 -43 61.333 -43 100c0 39.333 14 72.333 42 99
c27.333 26 60 39 98 39zM514.002 557.999c38.667 0 71.668 -14.666 99.001 -43.999c24.667 -26 37 -57.333 37 -94c0 -39.333 -14.333 -72.666 -43 -99.999c-26.667 -25.333 -58.334 -38 -95.001 -38c-36 0 -67.667 12.667 -95 38c-28.667 27.333 -43 60.666 -43 99.999
c0 37.333 12.333 68.666 37 93.999c28 29.333 62.333 44 103 44z" />
    <glyph glyph-name="oslash" unicode="&#xf8;" horiz-adv-x="1239" vert-adv-y="1428" 
d="M329 45l-102.002 -118.001l-114 99l96 110c-95.333 100.667 -143 220.334 -143 359.001c0 142.667 49.333 263.667 148 363c104.667 106 240 159 406 159c109.333 0 207 -24.333 293 -73l103 118l111 -97l-96 -111c96 -98 144 -217.667 144 -359
c0 -142.667 -49.333 -263.667 -148 -363c-105.333 -106 -240.666 -159 -405.999 -159c-107.333 0 -204.666 24 -291.999 72zM527.998 273.999c28 -18.667 58.667 -27.999 92 -27.999c54.667 0 96.667 20.333 126 61c31.333 42.667 47 104 47 184
c0 29.333 -2 56.666 -6 81.999zM452.998 416l261 299c-28.667 19.333 -60 29 -94 29c-54 0 -95.667 -20.333 -125 -61c-31.333 -42.667 -47 -103.334 -47 -182.001c0 -27.333 1.66699 -55.666 5 -84.999z" />
    <glyph glyph-name="ugrave" unicode="&#xf9;" horiz-adv-x="1249" vert-adv-y="1428" 
d="M1139 990v-990h-362v127c-79.333 -103.333 -180.666 -155 -303.999 -155c-116 0 -208.333 42.667 -277 128c-34 42.667 -56.667 88.667 -68 138c-11.333 50 -17 106.333 -17 169v583h382v-522c0 -53.333 9 -93.333 27 -120c24 -34.667 58.333 -52 103 -52
c43.333 0 77.666 15.667 102.999 47c20.667 26 31 62 31 108v539h382zM690 1365l107 -294h-286l-250 294h429z" />
    <glyph glyph-name="uacute" unicode="&#xfa;" horiz-adv-x="1249" vert-adv-y="1428" 
d="M1139 990v-990h-362v127c-79.333 -103.333 -180.666 -155 -303.999 -155c-116 0 -208.333 42.667 -277 128c-34 42.667 -56.667 88.667 -68 138c-11.333 50 -17 106.333 -17 169v583h382v-522c0 -53.333 9 -93.333 27 -120c24 -34.667 58.333 -52 103 -52
c43.333 0 77.666 15.667 102.999 47c20.667 26 31 62 31 108v539h382zM573 1365h429l-249 -294h-287z" />
    <glyph glyph-name="ucircumflex" unicode="&#xfb;" horiz-adv-x="1249" vert-adv-y="1428" 
d="M1139 990v-990h-362v127c-79.333 -103.333 -180.666 -155 -303.999 -155c-116 0 -208.333 42.667 -277 128c-34 42.667 -56.667 88.667 -68 138c-11.333 50 -17 106.333 -17 169v583h382v-522c0 -53.333 9 -93.333 27 -120c24 -34.667 58.333 -52 103 -52
c43.333 0 77.666 15.667 102.999 47c20.667 26 31 62 31 108v539h382zM785 1365l214 -294h-294l-81 135l-81 -135h-293l217 294h318z" />
    <glyph glyph-name="udieresis" unicode="&#xfc;" horiz-adv-x="1249" vert-adv-y="1428" 
d="M1139 990v-990h-362v127c-79.333 -103.333 -180.666 -155 -303.999 -155c-116 0 -208.333 42.667 -277 128c-34 42.667 -56.667 88.667 -68 138c-11.333 50 -17 106.333 -17 169v583h382v-522c0 -53.333 9 -93.333 27 -120c24 -34.667 58.333 -52 103 -52
c43.333 0 77.666 15.667 102.999 47c20.667 26 31 62 31 108v539h382zM559 1365v-294h-352v294h352zM1043 1365v-294h-352v294h352z" />
    <glyph glyph-name="yacute" unicode="&#xfd;" horiz-adv-x="1111" vert-adv-y="1428" 
d="M-7 990l403.999 0.000976562l104 -365c12.667 -48.667 31.334 -124.334 56.001 -227.001c6.66699 24.667 15.667 60 27 106l31 121l99 365h404l-359 -990c-31.333 -86 -59 -145 -83 -177c-37.333 -52.667 -82.333 -89 -135 -109c-48 -18.667 -105.667 -28 -173 -28h-271
v294h134c34 0 59 7.66699 75 23c16 14.667 24 33 24 55c0 18.667 -5 41.667 -15 69zM503.999 1365h429l-249 -294h-287z" />
    <glyph glyph-name="thorn" unicode="&#xfe;" horiz-adv-x="1264" vert-adv-y="1428" 
d="M111 1365l382 -0.000976562v-469c32 36 63.333 62.667 94 80c48.667 28 106 42 172 42c145.333 0 258 -56.333 338 -169c68 -96 102 -217.667 102 -365c0 -137.333 -31 -250.666 -93 -339.999c-78.667 -114 -191.667 -171 -339 -171c-106 0 -197.333 35.333 -274 106
v-393h-382v1679zM646 723.999c-56.667 0 -99.668 -23.667 -129.001 -71c-25.333 -40 -38 -92.667 -38 -158c0 -64 12.667 -116.333 38 -157c28.667 -47.333 72.334 -71 131.001 -71s102.667 23.667 132 71c24.667 40.667 37 93 37 157c0 66 -12.333 118.667 -37 158
c-30 47.333 -74.667 71 -134 71z" />
    <glyph glyph-name="ydieresis" unicode="&#xff;" horiz-adv-x="1111" vert-adv-y="1428" 
d="M-7 990l403.999 0.000976562l104 -365c12.667 -48.667 31.334 -124.334 56.001 -227.001c6.66699 24.667 15.667 60 27 106l31 121l99 365h404l-359 -990c-31.333 -86 -59 -145 -83 -177c-37.333 -52.667 -82.333 -89 -135 -109c-48 -18.667 -105.667 -28 -173 -28h-271
v294h134c34 0 59 7.66699 75 23c16 14.667 24 33 24 55c0 18.667 -5 41.667 -15 69zM488.999 1365v-294h-352v294h352zM972.999 1365v-294h-352v294h352z" />
    <glyph glyph-name="Cacute" unicode="&#x106;" horiz-adv-x="1445" vert-adv-y="1428" 
d="M1063 1756l-256 -304h-233l102 304h387zM1390 867l-407 -7.00098c-9.33301 46 -26.333 83.667 -51 113c-45.333 54.667 -104 82 -176 82c-80.667 0 -144.334 -33 -191.001 -99c-50.667 -70.667 -76 -159.667 -76 -267c0 -100 23.333 -186 70 -258
c51.333 -80.667 119 -121 203 -121c78.667 0 138.667 32.667 180 98c19.333 31.333 33 73.333 41 126h417c-14 -130.667 -51.667 -238 -113 -322c-62 -84 -143 -146.667 -243 -188c-87.333 -36.667 -179.333 -55 -276 -55c-152.667 0 -286.667 41.333 -402 124
c-102.667 72.667 -178.667 169.334 -228 290.001c-39.333 95.333 -59 199 -59 311c0 200 62.667 365.333 188 496c132 137.333 297 206 495 206c218 0 387.667 -81.333 509 -244c58.667 -78.667 98.334 -173.667 119.001 -285z" />
    <glyph glyph-name="cacute" unicode="&#x107;" horiz-adv-x="1199" vert-adv-y="1428" 
d="M548 1365h429l-249 -294h-287zM1132 610h-369.999c-18.667 89.333 -68.334 134 -149.001 134c-51.333 0 -91 -19 -119 -57c-34.667 -47.333 -52 -110.333 -52 -189c0 -66 12 -122.667 36 -170c28 -55.333 72.667 -83 134 -83c56 0 99 23.333 129 70
c17.333 27.333 28.333 62 33 104h367c-6.66699 -62.667 -17 -113 -31 -151c-38.667 -110 -115.667 -191 -231 -243c-77.333 -35.333 -166 -53 -266 -53c-166 0 -299 48.667 -399 146c-98.667 96 -148 221.333 -148 376c0 154 51.333 279.667 154 377s235 146 397 146
c110 0 208 -23.667 294 -71c133.333 -73.333 207 -185.333 221 -336z" />
    <glyph glyph-name="Ccaron" unicode="&#x10c;" horiz-adv-x="1445" vert-adv-y="1428" 
d="M562 1457l-214 294h294l81 -135l81 135h293l-217 -294h-318zM1390 867l-407 -7.00098c-9.33301 46 -26.333 83.667 -51 113c-45.333 54.667 -104 82 -176 82c-80.667 0 -144.334 -33 -191.001 -99c-50.667 -70.667 -76 -159.667 -76 -267c0 -100 23.333 -186 70 -258
c51.333 -80.667 119 -121 203 -121c78.667 0 138.667 32.667 180 98c19.333 31.333 33 73.333 41 126h417c-14 -130.667 -51.667 -238 -113 -322c-62 -84 -143 -146.667 -243 -188c-87.333 -36.667 -179.333 -55 -276 -55c-152.667 0 -286.667 41.333 -402 124
c-102.667 72.667 -178.667 169.334 -228 290.001c-39.333 95.333 -59 199 -59 311c0 200 62.667 365.333 188 496c132 137.333 297 206 495 206c218 0 387.667 -81.333 509 -244c58.667 -78.667 98.334 -173.667 119.001 -285z" />
    <glyph glyph-name="ccaron" unicode="&#x10d;" horiz-adv-x="1199" vert-adv-y="1428" 
d="M439 1071l-214 294h294l81 -135l81 135h293l-217 -294h-318zM1132 610h-369.999c-18.667 89.333 -68.334 134 -149.001 134c-51.333 0 -91 -19 -119 -57c-34.667 -47.333 -52 -110.333 -52 -189c0 -66 12 -122.667 36 -170c28 -55.333 72.667 -83 134 -83
c56 0 99 23.333 129 70c17.333 27.333 28.333 62 33 104h367c-6.66699 -62.667 -17 -113 -31 -151c-38.667 -110 -115.667 -191 -231 -243c-77.333 -35.333 -166 -53 -266 -53c-166 0 -299 48.667 -399 146c-98.667 96 -148 221.333 -148 376c0 154 51.333 279.667 154 377
s235 146 397 146c110 0 208 -23.667 294 -71c133.333 -73.333 207 -185.333 221 -336z" />
    <glyph glyph-name="dmacron" unicode="&#x111;" horiz-adv-x="1264" vert-adv-y="1428" 
d="M1154 1256l69 -0.000976562v-137h-69v-1119h-362v90c-32.667 -34.667 -62.667 -60 -90 -76c-48.667 -28 -107.667 -42 -177 -42c-146.667 0 -260.667 52.333 -342 157c-78 100.667 -117 226.334 -117 377.001c0 141.333 33.667 257.666 101 348.999
c36.667 50.667 84 90.334 142 119.001s120.333 43 187 43c70.667 0 134 -15.667 190 -47c23.333 -12.667 52 -34 86 -64v213h-221v137h221v109h382v-109zM614 723.999c-56.667 0 -99.335 -23.665 -128.002 -70.998c-25.333 -40.667 -38 -93.334 -38 -158.001
s12.667 -117.334 38 -158.001c28.667 -47.333 72.334 -71 131.001 -71s102.334 23.667 131.001 71c24.667 40.667 37 93 37 157c0 66.667 -12.333 119.667 -37 159c-29.333 47.333 -74 71 -134 71z" />
    <glyph glyph-name="Gbreve" unicode="&#x11e;" horiz-adv-x="1533" vert-adv-y="1428" 
d="M926 1760h201.999c-17.333 -76 -47 -139.333 -89 -190c-69.333 -82.667 -160.333 -124 -273 -124c-122 0 -218 47.667 -288 143c-34 46.667 -58.667 103.667 -74 171h201c34.667 -72.667 88.334 -109 161.001 -109s126 36.333 160 109zM853.999 750l572.001 0.000976562
v-750h-271l-26 117c-114 -98.667 -248.667 -148 -404 -148c-178.667 0 -329.667 64 -453 192c-129.333 133.333 -194 307 -194 521c0 211.333 63.333 383 190 515c128 132.667 293.333 199 496 199c220.667 0 392 -76.333 514 -229c62.667 -77.333 103 -169.333 121 -276
l-406 -7c-10 40 -27.667 73.333 -53 100c-44 47.333 -101.667 71 -173 71c-98 0 -169.333 -40.667 -214 -122c-34.667 -64 -52 -145 -52 -243c0 -115.333 22 -208.333 66 -279c48 -76.667 124 -115 228 -115c73.333 0 133.666 22 180.999 66
c25.333 23.333 44.333 52.666 57 87.999h-179v300z" />
    <glyph glyph-name="gbreve" unicode="&#x11f;" horiz-adv-x="1261" vert-adv-y="1428" 
d="M791 1376l202.002 0.000976562c-16.667 -76 -46.334 -139.667 -89.001 -191c-69.333 -82.667 -160.333 -124 -273 -124c-122 0 -218 47.667 -288 143c-34.667 47.333 -59.334 104.666 -74.001 171.999h201c34 -73.333 87.667 -110 161 -110c74 0 127.333 36.667 160 110z
M782.002 990.001h369v-848c0 -168 -49.333 -292 -148 -372c-92 -74 -216.333 -111 -373 -111c-184.667 0 -320 44.333 -406 133c-51.333 52 -79.666 116.333 -84.999 193h368c18 -49.333 57.333 -74 118 -74c94 0 141 45.333 141 136v103c-82 -59.333 -171 -89 -267 -89
c-92 0 -175 26 -249 78c-68.667 48 -118.334 114 -149.001 198c-23.333 62.667 -35 129.667 -35 201c0 140.667 40.667 256 122 346c81.333 89.333 185.666 134 312.999 134c110.667 0 204.334 -44 281.001 -132v104zM609.002 731.001c-54 0 -96.667 -22.332 -128 -66.999
c-26.667 -38 -40 -83 -40 -135s13.333 -97 40 -135c31.333 -44.667 75 -67 131 -67s99.667 22.333 131 67c26 37.333 39 82 39 134c0 53.333 -13 98.666 -39 135.999c-31.333 44.667 -76 67 -134 67z" />
    <glyph glyph-name="Idot" unicode="&#x130;" horiz-adv-x="699" vert-adv-y="1428" 
d="M532 1741v-276h-365v276h365zM561 1365v-1365h-423v1365h423z" />
    <glyph glyph-name="dotlessi" unicode="&#x131;" horiz-adv-x="603" vert-adv-y="1428" 
d="M493 990v-990h-382v990h382z" />
    <glyph glyph-name="Lslash" unicode="&#x141;" horiz-adv-x="1201" vert-adv-y="1428" 
d="M557 922l353 266v-261l-353 -266v-299h610v-362h-1033v369l-96 -72v262l96 72v734h423v-443z" />
    <glyph glyph-name="lslash" unicode="&#x142;" horiz-adv-x="631" vert-adv-y="1428" 
d="M506 926l95 71v-171l-95 -71v-755h-382v480l-95 -71v171l95 71v714h382v-439z" />
    <glyph glyph-name="OE" unicode="&#x152;" horiz-adv-x="2307" vert-adv-y="1428" 
d="M2199 1365v-341h-741v-166h649v-314h-649v-182h774v-362h-1177v64c-73.333 -63.333 -170 -95 -290 -95c-167.333 0 -311.333 51 -432 153c-69.333 58 -126.666 132.667 -171.999 224c-55.333 111.333 -83 225.333 -83 342c0 174.667 56.667 330 170 466
c61.333 74 132.666 131.667 213.999 173c92 46 189.667 69 293 69c120 0 220 -32.667 300 -98v67h1144zM770 1055c-61.333 0 -115.333 -20.998 -162 -62.998c-40 -36.667 -69.333 -90.334 -88 -161.001c-12.667 -46.667 -19 -96 -19 -148c0 -94.667 19 -176.667 57 -246
c22.667 -40 54 -71.333 94 -94c36.667 -21.333 77.667 -32 123 -32c96.667 0 168.667 42 216 126c38 69.333 57 151 57 245c0 97.333 -19 179.666 -57 246.999c-48 84 -121.667 126 -221 126z" />
    <glyph glyph-name="oe" unicode="&#x153;" horiz-adv-x="1964" vert-adv-y="1428" 
d="M981 91c-98.667 -78.667 -219 -118 -361 -118c-166 0 -301.333 53 -406 159c-98.667 99.333 -148 220.333 -148 363s49.333 263.667 148 363c104.667 106 240 159 406 159c142 0 262.667 -39.667 362 -119c102 79.333 224 119 366 119c176 0 315.333 -59 418 -177
c88.667 -102 133 -234 133 -396v-40h-727c5.33301 -44 22 -80 50 -108c38 -38.667 87 -58 147 -58c65.333 0 112 22.667 140 68h372c-18 -78 -63.667 -146.333 -137 -205c-106 -86 -234.667 -129 -386 -129c-149.333 0 -275 39.667 -377 119zM792 491v5v6
c-3.33301 161.333 -60.666 242 -171.999 242c-53.333 0 -95 -20.333 -125 -61c-31.333 -41.333 -47 -104 -47 -188s15.667 -146.667 47 -188c30 -40.667 71.667 -61 125 -61c111.333 0 168.666 81.667 171.999 245zM1514 609c-3.33301 37.333 -14.667 68 -34 92
c-32.667 42 -78 63 -136 63s-103.667 -21 -137 -63c-18.667 -24 -30 -54.667 -34 -92h341z" />
    <glyph glyph-name="Scedilla" unicode="&#x15e;" horiz-adv-x="1296" vert-adv-y="1428" 
d="M684 -30l-50.001 -85.999c49.333 8.66699 83.333 13 102 13c48 0 89.667 -9.66699 125 -29c56.667 -31.333 85 -80 85 -146c0 -67.333 -31.667 -122 -95 -164c-48.667 -32 -113 -48 -193 -48c-95.333 0 -198 21 -308 63l50 108c84.667 -32 155.667 -48 213 -48
c34 0 59.667 8.33301 77 25c15.333 14.667 23 33 23 55c0 50.667 -32 76 -96 76c-24 0 -55.333 -6 -94 -18l-59 53l92 151c-162 17.333 -285 64.666 -369 141.999c-97.333 84 -146.666 198.667 -147.999 344h424c4 -66 26.333 -112.667 67 -140
c34.667 -23.333 82.334 -35 143.001 -35c48 0 86.333 8.33301 115 25c34.667 19.333 52 48.333 52 87c0 25.333 -13.667 46.333 -41 63c-26.667 16.667 -103.667 44 -231 82c-124.667 37.333 -216.334 69.666 -275.001 96.999c-133.333 63.333 -200 172 -200 326
c0 142.667 62.333 254 187 334c99.333 63.333 222.333 95 369 95c122 0 228.667 -21.667 320 -65c152.667 -72 230 -198.333 232 -379h-398c0 34 -11.333 62 -34 84c-30 28.667 -75 43 -135 43c-34.667 0 -62.667 -4.33301 -84 -13c-34.667 -14.667 -52 -37 -52 -67
c0 -27.333 13 -47 39 -59c20 -8.66699 103.667 -33 251 -73c138.667 -37.333 239 -76.666 301 -117.999c112 -74.667 168 -178.667 168 -312c0 -125.333 -40.667 -228 -122 -308c-100.667 -98 -251 -150.667 -451 -158z" />
    <glyph glyph-name="scedilla" unicode="&#x15f;" horiz-adv-x="1070" vert-adv-y="1428" 
d="M555 -27l-47.0029 -78.998c40 7.33301 71.667 11 95 11c52.667 0 97.334 -13.333 134.001 -40c38 -28.667 57 -67.334 57 -116.001c0 -63.333 -28.333 -113.333 -85 -150c-48 -30.667 -107.333 -46 -178 -46c-92.667 0 -186.667 18.667 -282 56l44 98
c80 -28 146 -42 198 -42c60 0 90 25 90 75c0 24.667 -9.66699 43.667 -29 57c-14.667 10.667 -33 16 -55 16c-23.333 0 -52.333 -6.33301 -87 -19l-55 47l83 135c-92 6.66699 -173 28.667 -243 66c-109.333 62.667 -167.666 158.334 -174.999 287.001h362
c4.66699 -33.333 13.667 -58 27 -74c23.333 -27.333 63.666 -41 120.999 -41c79.333 0 119 26 119 78c0 19.333 -6.33301 33.666 -19 42.999c-15.333 12 -73.333 28.667 -174 50c-102 22 -172.667 40 -212 54c-136 50 -204 137.667 -204 263
c0 103.333 41.667 182.333 125 237c81.333 52.667 199.666 79 354.999 79c190 0 325.333 -44 406 -132c40 -44 63 -106.333 69 -187h-347c-5.33301 27.333 -13.666 47.333 -24.999 60c-18 20.667 -53 31 -105 31c-68.667 0 -103 -19.667 -103 -59
c0 -15.333 5 -27.666 15 -36.999c10.667 -9.33301 23.334 -16 38.001 -20c38.667 -10.667 93.667 -22.334 165 -35.001c122.667 -22.667 215 -52.667 277 -90c76 -46.667 114 -122 114 -226c0 -142.667 -73 -244.334 -219 -305.001c-63.333 -26 -146.666 -41 -249.999 -45z
" />
    <glyph glyph-name="Scaron" unicode="&#x160;" horiz-adv-x="1345" vert-adv-y="1428" 
d="M1213 960h-395.001c-23.333 81.333 -78.333 122 -165 122c-41.333 0 -76.666 -8.66699 -105.999 -26c-24.667 -14.667 -37 -33.334 -37 -56.001c0 -32 25.667 -55.333 77 -70l261 -76c142.667 -41.333 247 -89 313 -143c78 -64.667 117 -155 117 -271
c0 -152 -62.333 -270.667 -187 -356c-112 -76.667 -251.333 -115 -418 -115c-134 0 -250.667 25.333 -350 76c-117.333 60 -196 143.333 -236 250c-16 42.667 -26.667 97 -32 163h419c2.66699 -50.667 20.667 -89.334 54 -116.001c37.333 -30 88.666 -45 153.999 -45
c48 0 89.667 9.33301 125 28c36 18.667 54 44.334 54 77.001c0 22 -9.66699 40 -29 54c-17.333 12.667 -46.333 25.334 -87 38.001l-271 84c-103.333 32.667 -179.666 67.667 -228.999 105c-96.667 72.667 -145 170 -145 292c0 146.667 69 259 207 337
c98.667 56 216.667 84 354 84c220 0 376 -60.667 468 -182c48 -63.333 76 -148 84 -254zM512.999 1457l-214 294h294l81 -135l81 135h293l-217 -294h-318z" />
    <glyph glyph-name="scaron" unicode="&#x161;" horiz-adv-x="1106" vert-adv-y="1428" 
d="M1024 698l-355 -0.000976562c-3.33301 28 -10 47.667 -20 59c-22 23.333 -56.667 35 -104 35c-26.667 0 -49 -4.33301 -67 -13c-22 -10 -33 -25 -33 -45c0 -32 31.667 -54 95 -66l176 -35c112 -22 193 -53 243 -93c66.667 -52 100 -124.667 100 -218
c0 -109.333 -47.333 -194.666 -142 -255.999c-95.333 -62 -216.333 -93 -363 -93c-184.667 0 -323 47 -415 141c-54.667 56 -85 130.667 -91 224h366c12 -79.333 61.667 -119 149 -119c32 0 59 6.66699 81 20c22 12.667 33 29.667 33 51c0 32 -30 55 -90 69l-223 50
c-196.667 44 -295 140.333 -295 289c0 98 43.667 174.667 131 230c92.667 59.333 212 89 358 89c181.333 0 311.333 -42 390 -126c46 -50 71.333 -114.333 76 -193zM393 1071l-214 294h294l81 -135l81 135h293l-217 -294h-318z" />
    <glyph glyph-name="Ydieresis" unicode="&#x178;" horiz-adv-x="1290" vert-adv-y="1428" 
d="M856 502v-502h-410v502l-484 863h451l234 -483l234 483h448zM580 1741v-276h-365v276h365zM1075 1741v-276h-365v276h365z" />
    <glyph glyph-name="Zcaron" unicode="&#x17d;" horiz-adv-x="1332" vert-adv-y="1428" 
d="M1262 1365v-362l-657 -641h678v-362h-1216v342l653 661h-630v362h1172zM505 1457l-214 294h294l81 -135l81 135h293l-217 -294h-318z" />
    <glyph glyph-name="zcaron" unicode="&#x17e;" horiz-adv-x="1072" vert-adv-y="1428" 
d="M1008 294v-294h-957v297l440 399h-410v294h908v-294l-448 -402h467zM376 1071l-214 294h294l81 -135l81 135h293l-217 -294h-318z" />
    <glyph glyph-name="florin" unicode="&#x192;" horiz-adv-x="1338" vert-adv-y="1428" 
d="M846 969h176.999l-37 -191h-177l-213 -1092h-382l212 1092h-140l38 191h140l35 181c14 73.333 35.667 131.333 65 174c42.667 61.333 96 105.666 160 132.999c48.667 20 109.334 30.333 182.001 31h218l-52 -266h-90c-57.333 0.666992 -91 -23.666 -101 -72.999z" />
    <glyph glyph-name="circumflex" unicode="&#x2c6;" vert-adv-y="1428" 
d="M672 1365l214 -294h-294l-81 135l-81 -135h-293l217 294h318z" />
    <glyph glyph-name="caron" unicode="&#x2c7;" vert-adv-y="1428" 
d="M351 1071l-214 294h294l81 -135l81 135h293l-217 -294h-318z" />
    <glyph glyph-name="macron" unicode="&#x2c9;" vert-adv-y="1428" 
d="M854 1328v-218h-683v218h683z" />
    <glyph glyph-name="breve" unicode="&#x2d8;" vert-adv-y="1428" 
d="M672 1376l202.002 0.000976562c-16.667 -76 -46.334 -139.667 -89.001 -191c-69.333 -82.667 -160.333 -124 -273 -124c-122 0 -218 47.667 -288 143c-34.667 47.333 -59.334 104.666 -74.001 171.999h201c34 -73.333 87.667 -110 161 -110c74 0 127.333 36.667 160 110z
" />
    <glyph glyph-name="dotaccent" unicode="&#x2d9;" vert-adv-y="1428" 
d="M688 1365v-294h-352v294h352z" />
    <glyph glyph-name="ring" unicode="&#x2da;" vert-adv-y="1428" 
d="M515 1526c57.333 0 107.333 -21 150 -63c42 -42 63 -93 63 -153c0 -59.333 -21 -110 -63 -152c-42.667 -42.667 -93.667 -64 -153 -64s-110.333 21.333 -153 64c-42 42 -63 92.667 -63 152c0 60.667 21 111.667 63 153c43.333 42 95.333 63 156 63zM511 1386
c-20 0 -37.334 -7.33301 -52.001 -22c-14.667 -15.333 -22 -33 -22 -53c0 -20.667 7.33301 -38.667 22 -54c15.333 -14.667 33 -22 53 -22c20.667 0 38.334 7.33301 53.001 22c14.667 15.333 22 33 22 53c0 21.333 -7.33301 39.333 -22 54c-15.333 14.667 -33.333 22 -54 22
z" />
    <glyph glyph-name="ogonek" unicode="&#x2db;" vert-adv-y="1428" 
d="M691 0l164.998 -0.00195312c-74 -56 -111 -110.333 -111 -163c0 -34 15.667 -57.667 47 -71c21.333 -10 45.333 -15 72 -15c14.667 0 34.334 2.66699 59.001 8v-137c-47.333 -13.333 -89.666 -20 -126.999 -20c-95.333 0 -163.333 30.333 -204 91
c-18.667 28.667 -28 60.334 -28 95.001c0 42.667 15 85.334 45 128.001c16 22.667 43.333 50.667 82 84z" />
    <glyph glyph-name="tilde" unicode="&#x2dc;" vert-adv-y="1428" 
d="M670 1354l194.001 0.000976562c0 -80.667 -14.667 -146 -44 -196c-20 -33.333 -48.667 -59.333 -86 -78c-28.667 -14.667 -59.334 -22 -92.001 -22c-34 0 -72 8.66699 -114 26l-75 32c-16 6.66699 -31.667 10 -47 10c-30.667 0 -49.334 -21 -56.001 -63h-191v27
c0 83.333 17.667 146.666 53 189.999c38.667 48 91.334 72 158.001 72c38.667 0 82.334 -10.667 131.001 -32l57 -26c22 -10 40 -15 54 -15c35.333 0 54.666 25 57.999 75z" />
    <glyph glyph-name="hungarumlaut" unicode="&#x2dd;" vert-adv-y="1428" 
d="M201 1365h429l-249 -294h-287zM720 1365h429l-250 -294h-286z" />
    <glyph glyph-name="pi" unicode="&#x3c0;" horiz-adv-x="1369" vert-adv-y="1428" 
d="M191 0v693h-149v290h1286v-290h-150v-693h-369v693h-249v-693h-369z" />
    <glyph glyph-name="endash" unicode="&#x2013;" horiz-adv-x="1338" vert-adv-y="1428" 
d="M1260 669v-328h-1182v328h1182z" />
    <glyph glyph-name="emdash" unicode="&#x2014;" horiz-adv-x="1625" vert-adv-y="1428" 
d="M1625 669v-328h-1625v328h1625z" />
    <glyph glyph-name="quoteleft" unicode="&#x2018;" horiz-adv-x="562" vert-adv-y="1428" 
d="M452 645h-341.002v316c1.33301 146 50.333 256.333 147 331c58.667 42 123.334 66.333 194.001 73v-168c-41.333 -6.66699 -76.666 -26.667 -105.999 -60c-25.333 -29.333 -41.333 -61.333 -48 -96h154v-396z" />
    <glyph glyph-name="quoteright" unicode="&#x2019;" horiz-adv-x="562" vert-adv-y="1428" 
d="M111 1365l341.002 0.00195312v-316c-1.33301 -146.667 -50.333 -257 -147 -331c-58.667 -42.667 -123.334 -67.334 -194.001 -74.001v168c41.333 7.33301 76.666 27.666 105.999 60.999c25.333 29.333 41.333 61.333 48 96h-154v396z" />
    <glyph glyph-name="quotesinglbase" unicode="&#x201a;" horiz-adv-x="562" vert-adv-y="1428" 
d="M111 396l341.002 0.00195312v-316c-1.33301 -146.667 -50.333 -257 -147 -331c-58.667 -42.667 -123.334 -67.334 -194.001 -74.001v168c41.333 7.33301 76.666 27.666 105.999 60.999c25.333 29.333 41.333 61.333 48 96h-154v396z" />
    <glyph glyph-name="quotedblleft" unicode="&#x201c;" horiz-adv-x="1017" vert-adv-y="1428" 
d="M907 645h-341.002v316c1.33301 146 50.333 256.333 147 331c58.667 42 123.334 66.333 194.001 73v-168c-41.333 -6.66699 -76.666 -26.667 -105.999 -60c-25.333 -29.333 -41.333 -61.333 -48 -96h154v-396zM451.998 645h-341.002v316
c1.33301 146 50.333 256.333 147 331c58.667 42 123.334 66.333 194.001 73v-168c-41.333 -6.66699 -76.666 -26.667 -105.999 -60c-25.333 -29.333 -41.333 -61.333 -48 -96h154v-396z" />
    <glyph glyph-name="quotedblright" unicode="&#x201d;" horiz-adv-x="1017" vert-adv-y="1428" 
d="M111 1365l341.002 0.00195312v-316c-1.33301 -146.667 -50.333 -257 -147 -331c-58.667 -42.667 -123.334 -67.334 -194.001 -74.001v168c41.333 7.33301 76.666 27.666 105.999 60.999c25.333 29.333 41.333 61.333 48 96h-154v396zM566.002 1365l341.001 0.00195312
v-316c-1.33301 -146.667 -50.333 -257 -147 -331c-58 -42.667 -122.667 -67.334 -194 -74.001v168c41.333 7.33301 76.666 27.666 105.999 60.999c25.333 29.333 41.333 61.333 48 96h-154v396z" />
    <glyph glyph-name="quotedblbase" unicode="&#x201e;" horiz-adv-x="1017" vert-adv-y="1428" 
d="M111 396l341.002 0.00195312v-316c-1.33301 -146.667 -50.333 -257 -147 -331c-58.667 -42.667 -123.334 -67.334 -194.001 -74.001v168c41.333 7.33301 76.666 27.666 105.999 60.999c25.333 29.333 41.333 61.333 48 96h-154v396zM566.002 396.002l341.001 0.00195312
v-316c-1.33301 -146.667 -50.333 -257 -147 -331c-58 -42.667 -122.667 -67.334 -194 -74.001v168c41.333 7.33301 76.666 27.666 105.999 60.999c25.333 29.333 41.333 61.333 48 96h-154v396z" />
    <glyph glyph-name="dagger" unicode="&#x2020;" horiz-adv-x="1236" vert-adv-y="1428" 
d="M792 942h389v-300h-389v-1004h-348v1004h-389v300h389v423h348v-423z" />
    <glyph glyph-name="daggerdbl" unicode="&#x2021;" horiz-adv-x="1236" vert-adv-y="1428" 
d="M792 942h389v-300h-389v-281h389v-300h-389v-423h-348v423h-389v300h389v281h-389v300h389v423h348v-423z" />
    <glyph glyph-name="bullet" unicode="&#x2022;" horiz-adv-x="1365" vert-adv-y="1428" 
d="M689 978c75.333 0 140.666 -27.667 195.999 -83c56 -55.333 84 -122.333 84 -201s-27.667 -145.667 -83 -201s-122.333 -83 -201 -83c-77.333 0 -143.666 27.333 -198.999 82c-56.667 56 -85 123.333 -85 202c0 80 28 147.333 84 202c57.333 54.667 125.333 82 204 82z
" />
    <glyph glyph-name="ellipsis" unicode="&#x2026;" horiz-adv-x="1851" vert-adv-y="1428" 
d="M111 396h396v-396h-396v396zM728 396h396v-396h-396v396zM1345 396h396v-396h-396v396z" />
    <glyph glyph-name="perthousand" unicode="&#x2030;" horiz-adv-x="2728" vert-adv-y="1428" 
d="M429 1334c104 0 191.999 -42.668 263.999 -128.001c67.333 -80 101 -183 101 -309c0 -125.333 -33.667 -228.333 -101 -309c-71.333 -85.333 -160.666 -128 -267.999 -128c-108 0 -197.667 42.667 -269 128c-67.333 80.667 -101 183.334 -101 308.001
c0 126 33.667 229.333 101 310c71.333 85.333 162.333 128 273 128zM422.999 1129c-41.333 0 -72.334 -23 -93.001 -69c-19.333 -42 -29 -96.333 -29 -163c0 -66 9.66699 -120.333 29 -163c20.667 -46 52 -69 94 -69c42.667 0 74.334 23 95.001 69
c19.333 42.667 29 96.667 29 162c0 68 -9.66699 122.667 -29 164c-21.333 46 -53.333 69 -96 69zM1358 1324l-605 -1324h-225l605 1324h225zM1476 863.999c104.667 0 192.666 -42.668 263.999 -128.001c67.333 -80 101 -183 101 -309s-33.667 -229 -101 -309
c-71.333 -86 -160.666 -129 -267.999 -129c-108 0 -197.667 43 -269 129c-67.333 80.667 -101 183 -101 307c0 126.667 33.667 230.334 101 311.001c71.333 85.333 162.333 128 273 128zM1470 658.998c-41.333 0 -72.334 -22.999 -93.001 -68.999
c-19.333 -42.667 -29 -97.334 -29 -164.001c0 -66 9.66699 -120.333 29 -163c20.667 -46 52.334 -69 95.001 -69s74 23 94 69c19.333 43.333 29 97.333 29 162c0 68 -9.66699 123 -29 165c-20.667 46 -52.667 69 -96 69zM2309 863.999
c104.667 0 192.667 -42.668 264 -128.001c67.333 -80 101 -183 101 -309s-33.667 -229 -101 -309c-71.333 -86 -160.666 -129 -268 -129c-108 0 -197.667 43 -269 129c-67.333 80 -101 182.333 -101 307c0 126.667 33.667 230.334 101 311.001
c71.333 85.333 162.333 128 273 128zM2303 658.998c-41.333 0 -72.666 -22.999 -94 -68.999c-18.667 -42.667 -28 -97.334 -28 -164.001c0 -66 9.33301 -120.333 28 -163c21.333 -46 53.333 -69 96 -69s74 23 94 69c19.333 43.333 29 97.333 29 162
c0 68 -9.66699 123 -29 165c-20.667 46 -52.667 69 -96 69z" />
    <glyph glyph-name="guilsinglleft" unicode="&#x2039;" horiz-adv-x="473" vert-adv-y="1428" 
d="M386 72l-312 256v355l312 255v-306l-164 -127l164 -127v-306z" />
    <glyph glyph-name="guilsinglright" unicode="&#x203a;" horiz-adv-x="473" vert-adv-y="1428" 
d="M87 938l312 -255v-355l-312 -256v306l164 127l-164 127v306z" />
    <glyph glyph-name="franc" unicode="&#x20a3;" horiz-adv-x="2195" vert-adv-y="1428" 
d="M1225 1365v-362h-681v-180h557v-341h-557v-482h-410v1365h1091zM1384 990h361.999v-136c36.667 45.333 70.667 79 102 101c58 41.333 121.667 62 191 62c33.333 0 73 -6.66699 119 -20v-343c-62.667 23.333 -113.667 35 -153 35c-73.333 0 -132.666 -23.333 -177.999 -70
c-40 -41.333 -60 -97 -60 -167v-452h-383v990z" />
    <glyph glyph-name="a" unicode="&#x20ac;" horiz-adv-x="1446" vert-adv-y="1428" 
d="M14 742l49 120h169c30 107.333 79.667 202 149 284s151.666 144.667 246.999 188c93.333 42.667 192.666 64 297.999 64c189.333 0 358 -71 506 -213l-51 -122c-123.333 143.333 -275.666 215 -456.999 215c-171.333 0 -316.666 -63.667 -435.999 -191
c-60.667 -64.667 -104.334 -139.667 -131.001 -225h780h159l-49 -120h-915c-1.33301 -24.667 -2 -44 -2 -58s0.666992 -34 2 -60h866l-50 -120h-791c18.667 -62.667 50.334 -123.667 95.001 -183c51.333 -67.333 114.333 -121 189 -161c88 -48 182 -72 282 -72
c183.333 0 336 71.667 458 215v-170c-142 -110.667 -293.667 -166 -455 -166c-148.667 0 -284 42 -406 126c-143.333 98.667 -239.333 235.667 -288 411h-216l49 120h146c-1.33301 26.667 -2 47 -2 61c0 16 0.666992 35 2 57h-197z" />
    <glyph glyph-name="trademark" unicode="&#x2122;" horiz-adv-x="1899" vert-adv-y="1428" 
d="M536 1138v-592h-279v592h-243v227h764v-227h-242zM1451 546h-210l-108 427v-15l1 -64v-88v-260h-249v819h357l104 -406l104 406h357v-819h-249v238l1 85v79v25z" />
    <glyph glyph-name="Ohm" unicode="&#x2126;" horiz-adv-x="1365" vert-adv-y="1428" 
d="M57 0v343h221c-61.333 40 -108.333 80.667 -141 122c-60 78 -90 177.333 -90 298c0 112.667 28.667 219.667 86 321c59.333 104.667 140.666 184.667 243.999 240c92.667 50 194.667 75 306 75c186.667 0 340.667 -64.667 462 -194
c56.667 -60.667 100.334 -131 131.001 -211c29.333 -76 44 -153.333 44 -232c0 -126.667 -34 -230.334 -102 -311.001c-29.333 -34.667 -72.333 -70.667 -129 -108h221v-343h-565v315c58 28.667 100.333 70.667 127 126c30.667 64.667 46 150.334 46 257.001
c0 93.333 -16.667 171 -50 233c-18 34 -43 62.333 -75 85c-34 24 -70.667 36 -110 36c-53.333 0 -101.333 -22 -144 -66c-60 -62 -90 -158 -90 -288c0 -135.333 24.333 -236 73 -302c24 -33.333 57.333 -60.333 100 -81v-315h-565z" />
    <glyph glyph-name="partialdiff" unicode="&#x2202;" vert-adv-y="1428" 
d="M86 1049l44 303c268.667 -24 477.667 -97.333 627 -220c165.333 -135.333 248 -323 248 -563c0 -218 -62.333 -377.667 -187 -479c-86 -70.667 -195.333 -106 -328 -106c-138 0 -249.333 42 -334 126c-62.667 62.667 -105.334 142 -128.001 238
c-9.33301 40 -14 79.667 -14 119c0 76 17.667 145.667 53 209c52.667 93.333 129 155.333 229 186c42.667 13.333 87.334 20 134.001 20c90.667 0 158.334 -17 203.001 -51c-22.667 44 -48.334 76 -77.001 96c-107.333 74 -264 114.667 -470 122zM505 592
c-38 0 -70.667 -14 -98 -42c-28.667 -29.333 -43 -65 -43 -107c0 -40.667 14 -75.334 42 -104.001c28 -29.333 61.667 -44 101 -44s73 14.667 101 44c27.333 29.333 41 64 41 104c0 42.667 -14.333 78.334 -43 107.001c-28 28 -61.667 42 -101 42z" />
    <glyph glyph-name="increment" unicode="&#x2206;" horiz-adv-x="1367" vert-adv-y="1428" 
d="M20 0l456 1365h411l461 -1365h-1328zM521 343h316l-153 608z" />
    <glyph glyph-name="product" unicode="&#x220f;" horiz-adv-x="1365" vert-adv-y="1428" 
d="M27 1536h1312v-315h-144v-1418h144v-315h-614v315h117v1418h-318v-1418h115v-315h-612v315h147v1418h-147v315z" />
    <glyph glyph-name="summation" unicode="&#x2211;" horiz-adv-x="1365" vert-adv-y="1428" 
d="M1307 1536v-561h-355l-44 198h-396l485 -635l-482 -687h411l25 212h375v-575h-1258v417l461 632l-461 579v420h1239z" />
    <glyph glyph-name="minus" unicode="&#x2212;" vert-adv-y="1428" 
d="M2 854h1021v-189h-1021v189z" />
    <glyph glyph-name="fraction" unicode="&#x2215;" horiz-adv-x="312" vert-adv-y="1428" 
d="M571 1365l-605 -1365h-225l605 1365h225z" />
    <glyph glyph-name="periodcentered" unicode="&#x2219;" horiz-adv-x="617" vert-adv-y="1428" 
d="M111 703h396v-396h-396v396z" />
    <glyph glyph-name="radical" unicode="&#x221a;" horiz-adv-x="1365" vert-adv-y="1428" 
d="M1365 1693l-0.000976562 -325.999h-309l-308 -1367h-467l-87 468h-194v326h416l36 -171c17.333 -110.667 26 -210.334 26 -299.001h23c2 46 6 95.333 12 148c20.667 179.333 45.334 327 74.001 443l180 778h598z" />
    <glyph glyph-name="infinity" unicode="&#x221e;" horiz-adv-x="1365" vert-adv-y="1428" 
d="M689 521c-100 -107.333 -206.668 -161 -320.001 -161c-104 0 -188.667 36 -254 108c-54 59.333 -81 135 -81 227c0 109.333 38.333 195.333 115 258c62 50.667 134.667 76 218 76c90 0 172.667 -33 248 -99c18.667 -16 39.334 -35.667 62.001 -59
c95.333 105.333 201.333 158 318 158c112.667 0 201.667 -40.667 267 -122c46 -56.667 69 -127 69 -211c0 -106 -35.667 -190.333 -107 -253c-62.667 -55.333 -137.667 -83 -225 -83c-110 0 -213.333 53.667 -310 161zM814.999 695c46.667 -62 93 -93 139 -93
c28 0 52 9.33301 72 28c18.667 18 28 39.667 28 65c0 29.333 -11.667 53 -35 71c-19.333 14.667 -41 22 -65 22c-37.333 0 -72.333 -17 -105 -51c-24 -26 -35.333 -40 -34 -42zM549.999 695l-5 7.00098c-44 56.667 -88.333 85 -133 85c-28.667 0 -52.667 -9.33301 -72 -28
c-18.667 -18 -28 -39.667 -28 -65c0 -28.667 11.667 -52.334 35 -71.001c19.333 -14.667 41 -22 65 -22c36.667 0 71.334 17.333 104.001 52c4.66699 4.66699 11.667 12.667 21 24s13.666 17.333 12.999 18z" />
    <glyph glyph-name="integral" unicode="&#x222b;" vert-adv-y="1428" 
d="M19 -492l61.999 374.999c37.333 -13.333 69 -20 95 -20c30.667 0 57.667 9.33301 81 28c24.667 20 38 52.667 40 98c1.33301 17.333 2 81 2 191v589v123c0 114 2.66699 193.667 8 239c9.33301 83.333 32.333 152.333 69 207c87.333 132 227.333 198 420 198
c56 0 125.333 -6.66699 208 -20l-61 -375c-37.333 13.333 -70 20 -98 20c-54 0 -90.667 -23.667 -110 -71c-6.66699 -17.333 -10 -54.666 -10 -111.999v-713c0 -170 -0.5 -272 -1.5 -306s-4.83301 -68 -11.5 -102c-22 -120.667 -79.333 -214.667 -172 -282
c-79.333 -58 -184.666 -87 -315.999 -87c-52 0 -110 5.33301 -174 16c-12 2 -22.333 3.33301 -31 4z" />
    <glyph glyph-name="approxequal" unicode="&#x2248;" vert-adv-y="1428" 
d="M212 713l-198.001 139.999c28 72.667 56.333 130.334 85 173.001c64.667 96 144.667 144 240 144c31.333 0 69 -7.33301 113 -22c8.66699 -2.66699 46.667 -16 114 -40c71.333 -26 115.333 -39 132 -39c40 0 78.333 26.333 115 79l198 -140c-30 -74 -55 -127 -75 -159
c-67.333 -105.333 -150.333 -158 -249 -158c-41.333 0 -117.666 21 -228.999 63c-67.333 25.333 -113 38 -137 38c-36 0 -72.333 -26.333 -109 -79zM211.999 198.999l-198.001 139.999c28 72.667 56.333 130.334 85 173.001c64.667 96 144.667 144 240 144
c31.333 0 69 -7.33301 113 -22c8.66699 -2.66699 46.667 -16 114 -40c71.333 -26 115.333 -39 132 -39c40 0 78.333 26.333 115 79l198 -140c-30 -74 -55 -127 -75 -159c-67.333 -105.333 -150.666 -158 -249.999 -158c-40.667 0 -116.667 21 -228 63
c-67.333 25.333 -113 38 -137 38c-36 0 -72.333 -26.333 -109 -79z" />
    <glyph glyph-name="notequal" unicode="&#x2260;" vert-adv-y="1428" 
d="M509 1037l152 276l252 -145l-78 -131h120v-348h-260l-74 -126h333v-348h-459l-123 -216l-253 145l49 71h-100v348h226l75 126h-299v348h439z" />
    <glyph glyph-name="lessequal" unicode="&#x2264;" vert-adv-y="1428" 
d="M955 1396v-389l-432 -103l430 -100l2 -390l-887 318v347zM955 363v-366h-887v366h887z" />
    <glyph glyph-name="greaterequal" unicode="&#x2265;" vert-adv-y="1428" 
d="M68 414l2 390l430 100l-432 103v389l887 -317v-347zM68 -3v366h887v-366h-887z" />
    <glyph glyph-name="lozenge" unicode="&#x25ca;" horiz-adv-x="1365" vert-adv-y="1428" 
d="M683 1419l531 -736l-531 -736l-532 736zM683 1238l-404 -555l404 -554l403 554z" />
    <glyph glyph-name="fi" unicode="&#xf001;" horiz-adv-x="1313" vert-adv-y="1428" 
d="M710 990l-0.000976562 -238.999h-178v-751h-382v751h-140v239h140v38c0 73.333 10.667 130.666 32 171.999c30.667 62 75.334 106.667 134.001 134c45.333 20.667 104 31 176 31h218v-266h-90c-58 0.666992 -87.333 -23.333 -88 -72v-37h178zM1203 990.001v-990h-382v990
h382zM1203 1365v-273h-382v273h382z" />
    <glyph glyph-name="fl" unicode="&#xf002;" horiz-adv-x="1313" vert-adv-y="1428" 
d="M710 990l-0.000976562 -238.999h-178v-751h-382v751h-140v239h140v38c0 73.333 10.667 130.666 32 171.999c30.667 62 75.334 106.667 134.001 134c45.333 20.667 104 31 176 31h218v-266h-90c-58 0.666992 -87.333 -23.333 -88 -72v-37h178zM1203 1365v-1365h-382v1365
h382z" />
    <glyph glyph-name="glyph1" horiz-adv-x="0" vert-adv-y="0" 
 />
    <glyph glyph-name="glyph2" horiz-adv-x="614" vert-adv-y="1428" 
 />
    <glyph glyph-name="glyph172" horiz-adv-x="1338" vert-adv-y="1338" 
 />
    <glyph glyph-name="glyph210" horiz-adv-x="614" vert-adv-y="1428" 
 />
    <glyph glyph-name="glyph262" vert-adv-y="1428" 
d="M694 1741v-276h-365v276h365z" />
    <glyph glyph-name="glyph263" vert-adv-y="1428" 
d="M454 1741v-276h-329v276h329zM899 1741v-276h-329v276h329z" />
    <glyph glyph-name="glyph264" vert-adv-y="1428" 
d="M672 1760h201.999c-17.333 -76 -47 -139.333 -89 -190c-69.333 -82.667 -160.333 -124 -273 -124c-122 0 -218 47.667 -288 143c-34 46.667 -58.667 103.667 -74 171h201c34.667 -72.667 88.334 -109 161.001 -109s126 36.333 160 109z" />
    <glyph glyph-name="glyph265" vert-adv-y="1428" 
d="M351 1457l-214 294h294l81 -135l81 135h293l-217 -294h-318z" />
    <glyph glyph-name="glyph266" vert-adv-y="1428" 
d="M452 1365v-294h-316v294h316zM889 1365v-294h-316v294h316z" />
    <glyph glyph-name="glyph267" vert-adv-y="1428" 
d="M511 1595l-86 -134h-304l223 286h323l236 -286h-303z" />
    <glyph glyph-name="glyph268" vert-adv-y="1428" 
d="M577 1751l107 -294h-286l-250 294h429z" />
    <glyph glyph-name="glyph269" vert-adv-y="1428" 
d="M852 1756l-256 -304h-233l102 304h387z" />
    <glyph glyph-name="glyph270" vert-adv-y="1428" 
d="M447 1741v-276h-365v276h365zM942 1741v-276h-365v276h365z" />
    <glyph glyph-name="glyph271" vert-adv-y="1428" 
d="M515 1852c56 0 104.333 -20.333 145 -61c40.667 -41.333 61 -91 61 -149c0 -57.333 -20.333 -106.666 -61 -147.999c-40.667 -40.667 -90 -61 -148 -61s-107.333 20.333 -148 61c-40.667 41.333 -61 90.666 -61 147.999c0 59.333 20.333 109 61 149
c42 40.667 92.333 61 151 61zM511 1705c-16 0 -30.335 -6 -43.002 -18c-12 -12.667 -18 -27.667 -18 -45c0 -16.667 6 -31 18 -43c12.667 -12.667 27.334 -19 44.001 -19s31.334 6.33301 44.001 19c12 12 18 26.333 18 43c0 18 -6 33 -18 45c-12.667 12 -27.667 18 -45 18z
" />
    <glyph glyph-name="glyph272" vert-adv-y="1428" 
d="M672 1748l197.001 0.000976562c0 -79.333 -15 -143.333 -45 -192c-20 -32.667 -48.667 -58.334 -86 -77.001c-29.333 -14 -60.333 -21 -93 -21c-35.333 0 -74.333 8.66699 -117 26l-76 31c-16.667 6.66699 -32.334 10 -47.001 10c-30.667 0 -49.334 -20.667 -56.001 -62
h-194v32c0 85.333 21 149.333 63 192c40 39.333 89.667 59 149 59c41.333 0 86 -10.667 134 -32l58 -25c23.333 -10 41.333 -15 54 -15c36.667 0 56.334 24.667 59.001 74z" />
    <glyph glyph-name="glyph274" horiz-adv-x="614" vert-adv-y="1428" 
 />
    </font>
</defs>
</svg>
